<?xml version="1.0" encoding="UTF-8" standalone="no"?>
<svg
   xmlns:dc="http://purl.org/dc/elements/1.1/"
   xmlns:cc="http://creativecommons.org/ns#"
   xmlns:rdf="http://www.w3.org/1999/02/22-rdf-syntax-ns#"
   xmlns:svg="http://www.w3.org/2000/svg"
   xmlns="http://www.w3.org/2000/svg"
   viewBox="0 670 330 300"
   height="300"
   width="330"
   xml:space="preserve"
   id="svg2"
   version="1.1"><metadata
     id="metadata8"><rdf:RDF><cc:Work
         rdf:about=""><dc:format>image/svg+xml</dc:format><dc:type
           rdf:resource="http://purl.org/dc/dcmitype/StillImage" /></cc:Work></rdf:RDF></metadata><defs
     id="defs6" /><g
     transform="matrix(1.3333333,0,0,1.3333333,0,2.425e-5)"
     id="g10"><g
       id="g12"><path
         id="path14"
         style="fill:#e51400;fill-opacity:1;fill-rule:nonzero;stroke:none"
         d="m 193.875,163.125 h 55.5 v 7.5 h -55.5 z" /><path
         id="path16"
         style="fill:#e51400;fill-opacity:1;fill-rule:nonzero;stroke:none"
         d="m 193.41,114.84 h 7.5 v 56.063 h -7.5 z" /><path
         id="path18"
         style="fill:#e51400;fill-opacity:1;fill-rule:nonzero;stroke:none"
         d="m 182.16,54.84 h 7.5 v 56.063 h -7.5 z" /><g
         id="g20"><path
           id="path22"
           style="fill:none;stroke:#001dbc;stroke-width:5.25;stroke-linecap:butt;stroke-linejoin:miter;stroke-miterlimit:4;stroke-dasharray:none;stroke-opacity:1"
           d="m 11.625,52.875 h 60 v 60 h -60 z" /></g><g
         id="g24"><path
           id="path26"
           style="fill:none;stroke:#001dbc;stroke-width:5.25;stroke-linecap:butt;stroke-linejoin:miter;stroke-miterlimit:4;stroke-dasharray:none;stroke-opacity:1"
           d="m 71.625,52.875 h 60 v 60 h -60 z" /></g><g
         id="g28"><path
           id="path30"
           style="fill:none;stroke:#001dbc;stroke-width:5.25;stroke-linecap:butt;stroke-linejoin:miter;stroke-miterlimit:4;stroke-dasharray:none;stroke-opacity:1"
           d="m 131.625,52.875 h 60 v 60 h -60 z" /></g><g
         id="g32"><path
           id="path34"
           style="fill:none;stroke:#001dbc;stroke-width:5.25;stroke-linecap:butt;stroke-linejoin:miter;stroke-miterlimit:4;stroke-dasharray:none;stroke-opacity:1"
           d="m 191.625,52.875 h 60 v 60 h -60 z" /></g><g
         id="g36"><path
           id="path38"
           style="fill:none;stroke:#001dbc;stroke-width:5.25;stroke-linecap:butt;stroke-linejoin:miter;stroke-miterlimit:4;stroke-dasharray:none;stroke-opacity:1"
           d="m 71.625,112.875 h 60 v 60 h -60 z" /></g><g
         id="g40"><path
           id="path42"
           style="fill:none;stroke:#001dbc;stroke-width:5.25;stroke-linecap:butt;stroke-linejoin:miter;stroke-miterlimit:4;stroke-dasharray:none;stroke-opacity:1"
           d="m 191.625,112.875 h 60 v 60 h -60 z" /></g><g
         id="g44"><path
           id="path46"
           style="fill:none;stroke:#001dbc;stroke-width:5.25;stroke-linecap:butt;stroke-linejoin:miter;stroke-miterlimit:4;stroke-dasharray:none;stroke-opacity:1"
           d="m 11.625,172.875 h 60 v 60 h -60 z" /></g><g
         id="g48"><path
           id="path50"
           style="fill:none;stroke:#001dbc;stroke-width:5.25;stroke-linecap:butt;stroke-linejoin:miter;stroke-miterlimit:4;stroke-dasharray:none;stroke-opacity:1"
           d="m 131.625,172.875 h 60 v 60 h -60 z" /></g><g
         id="g52"><path
           id="path54"
           style="fill:none;stroke:#001dbc;stroke-width:5.25;stroke-linecap:butt;stroke-linejoin:miter;stroke-miterlimit:4;stroke-dasharray:none;stroke-opacity:1"
           d="m 131.625,112.875 h 60 v 60 h -60 z" /></g><g
         id="g56"><path
           id="path58"
           style="fill:#ffffff;fill-opacity:1;fill-rule:nonzero;stroke:#000000;stroke-width:0.75;stroke-linecap:butt;stroke-linejoin:miter;stroke-miterlimit:4;stroke-dasharray:none;stroke-opacity:1"
           d="m 362.25,82.875 c 0,11.391 -9.234,20.625 -20.625,20.625 C 330.234,103.5 321,94.266 321,82.875 c 0,-11.391 9.234,-20.625 20.625,-20.625 11.391,0 20.625,9.234 20.625,20.625 z" /></g><g
         id="g60"><path
           id="path62"
           style="fill:#ffffff;fill-opacity:1;fill-rule:nonzero;stroke:#000000;stroke-width:0.75;stroke-linecap:butt;stroke-linejoin:miter;stroke-miterlimit:4;stroke-dasharray:none;stroke-opacity:1"
           d="m 422.25,82.875 c 0,11.391 -9.234,20.625 -20.625,20.625 C 390.234,103.5 381,94.266 381,82.875 c 0,-11.391 9.234,-20.625 20.625,-20.625 11.391,0 20.625,9.234 20.625,20.625 z" /></g><g
         id="g64"><path
           id="path66"
           style="fill:#ffffff;fill-opacity:1;fill-rule:nonzero;stroke:#000000;stroke-width:0.75;stroke-linecap:butt;stroke-linejoin:miter;stroke-miterlimit:4;stroke-dasharray:none;stroke-opacity:1"
           d="m 482.25,82.875 c 0,11.391 -9.234,20.625 -20.625,20.625 C 450.234,103.5 441,94.266 441,82.875 c 0,-11.391 9.234,-20.625 20.625,-20.625 11.391,0 20.625,9.234 20.625,20.625 z" /></g><g
         id="g68"><path
           id="path70"
           style="fill:#ffffff;fill-opacity:1;fill-rule:nonzero;stroke:#000000;stroke-width:0.75;stroke-linecap:butt;stroke-linejoin:miter;stroke-miterlimit:4;stroke-dasharray:none;stroke-opacity:1"
           d="m 542.25,82.875 c 0,11.391 -9.234,20.625 -20.625,20.625 C 510.234,103.5 501,94.266 501,82.875 c 0,-11.391 9.234,-20.625 20.625,-20.625 11.391,0 20.625,9.234 20.625,20.625 z" /></g><g
         id="g72"><path
           id="path74"
           style="fill:#ffffff;fill-opacity:1;fill-rule:nonzero;stroke:#000000;stroke-width:0.75;stroke-linecap:butt;stroke-linejoin:miter;stroke-miterlimit:4;stroke-dasharray:none;stroke-opacity:1"
           d="m 542.25,142.875 c 0,11.391 -9.234,20.625 -20.625,20.625 -11.391,0 -20.625,-9.234 -20.625,-20.625 0,-11.391 9.234,-20.625 20.625,-20.625 11.391,0 20.625,9.234 20.625,20.625 z" /></g><g
         id="g76"><path
           id="path78"
           style="fill:#ffffff;fill-opacity:1;fill-rule:nonzero;stroke:#000000;stroke-width:0.75;stroke-linecap:butt;stroke-linejoin:miter;stroke-miterlimit:4;stroke-dasharray:none;stroke-opacity:1"
           d="m 482.25,142.875 c 0,11.391 -9.234,20.625 -20.625,20.625 -11.391,0 -20.625,-9.234 -20.625,-20.625 0,-11.391 9.234,-20.625 20.625,-20.625 11.391,0 20.625,9.234 20.625,20.625 z" /></g><g
         id="g80"><path
           id="path82"
           style="fill:#ffffff;fill-opacity:1;fill-rule:nonzero;stroke:#000000;stroke-width:0.75;stroke-linecap:butt;stroke-linejoin:miter;stroke-miterlimit:4;stroke-dasharray:none;stroke-opacity:1"
           d="m 422.25,142.875 c 0,11.391 -9.234,20.625 -20.625,20.625 -11.391,0 -20.625,-9.234 -20.625,-20.625 0,-11.391 9.234,-20.625 20.625,-20.625 11.391,0 20.625,9.234 20.625,20.625 z" /></g><g
         id="g84"><path
           id="path86"
           style="fill:#ffffff;fill-opacity:1;fill-rule:nonzero;stroke:#000000;stroke-width:0.75;stroke-linecap:butt;stroke-linejoin:miter;stroke-miterlimit:4;stroke-dasharray:none;stroke-opacity:1"
           d="m 362.25,202.875 c 0,11.391 -9.234,20.625 -20.625,20.625 -11.391,0 -20.625,-9.234 -20.625,-20.625 0,-11.391 9.234,-20.625 20.625,-20.625 11.391,0 20.625,9.234 20.625,20.625 z" /></g><g
         id="g88"><path
           id="path90"
           style="fill:#ffffff;fill-opacity:1;fill-rule:nonzero;stroke:#000000;stroke-width:0.75;stroke-linecap:butt;stroke-linejoin:miter;stroke-miterlimit:4;stroke-dasharray:none;stroke-opacity:1"
           d="m 482.25,202.875 c 0,11.391 -9.234,20.625 -20.625,20.625 -11.391,0 -20.625,-9.234 -20.625,-20.625 0,-11.391 9.234,-20.625 20.625,-20.625 11.391,0 20.625,9.234 20.625,20.625 z" /></g><g
         id="g92"><path
           id="path94"
           style="fill:none;stroke:#000000;stroke-width:0.75;stroke-linecap:butt;stroke-linejoin:miter;stroke-miterlimit:10;stroke-dasharray:none;stroke-opacity:1"
           d="m 367.027,322.875 h 10.246 -11.296 10.246" /></g><g
         id="g96"><path
           id="path98"
           style="fill:#000000;fill-opacity:1;fill-rule:nonzero;stroke:#000000;stroke-width:0.75;stroke-linecap:butt;stroke-linejoin:miter;stroke-miterlimit:10;stroke-dasharray:none;stroke-opacity:1"
           d="m 363.09,322.875 5.25,-2.625 -1.313,2.625 1.313,2.625 z" /></g><g
         id="g100"><path
           id="path102"
           style="fill:#000000;fill-opacity:1;fill-rule:nonzero;stroke:#000000;stroke-width:0.75;stroke-linecap:butt;stroke-linejoin:miter;stroke-miterlimit:10;stroke-dasharray:none;stroke-opacity:1"
           d="m 380.16,322.875 -5.25,2.625 1.313,-2.625 -1.313,-2.625 z" /></g><g
         id="g104"><path
           id="path106"
           style="fill:#ffffff;fill-opacity:1;fill-rule:nonzero;stroke:#000000;stroke-width:0.75;stroke-linecap:butt;stroke-linejoin:miter;stroke-miterlimit:4;stroke-dasharray:none;stroke-opacity:1"
           d="m 362.25,322.875 c 0,11.391 -9.234,20.625 -20.625,20.625 -11.391,0 -20.625,-9.234 -20.625,-20.625 0,-11.391 9.234,-20.625 20.625,-20.625 11.391,0 20.625,9.234 20.625,20.625 z" /></g><g
         id="g108"><path
           id="path110"
           style="fill:none;stroke:#000000;stroke-width:0.75;stroke-linecap:butt;stroke-linejoin:miter;stroke-miterlimit:10;stroke-dasharray:none;stroke-opacity:1"
           d="m 427.027,322.875 h 10.246 -11.296 10.246" /></g><g
         id="g112"><path
           id="path114"
           style="fill:#000000;fill-opacity:1;fill-rule:nonzero;stroke:#000000;stroke-width:0.75;stroke-linecap:butt;stroke-linejoin:miter;stroke-miterlimit:10;stroke-dasharray:none;stroke-opacity:1"
           d="m 423.09,322.875 5.25,-2.625 -1.313,2.625 1.313,2.625 z" /></g><g
         id="g116"><path
           id="path118"
           style="fill:#000000;fill-opacity:1;fill-rule:nonzero;stroke:#000000;stroke-width:0.75;stroke-linecap:butt;stroke-linejoin:miter;stroke-miterlimit:10;stroke-dasharray:none;stroke-opacity:1"
           d="m 440.16,322.875 -5.25,2.625 1.313,-2.625 -1.313,-2.625 z" /></g><g
         id="g120"><path
           id="path122"
           style="fill:#ffffff;fill-opacity:1;fill-rule:nonzero;stroke:#000000;stroke-width:0.75;stroke-linecap:butt;stroke-linejoin:miter;stroke-miterlimit:4;stroke-dasharray:none;stroke-opacity:1"
           d="m 422.25,322.875 c 0,11.391 -9.234,20.625 -20.625,20.625 -11.391,0 -20.625,-9.234 -20.625,-20.625 0,-11.391 9.234,-20.625 20.625,-20.625 11.391,0 20.625,9.234 20.625,20.625 z" /></g><g
         id="g124"><path
           id="path126"
           style="fill:none;stroke:#000000;stroke-width:0.75;stroke-linecap:butt;stroke-linejoin:miter;stroke-miterlimit:10;stroke-dasharray:none;stroke-opacity:1"
           d="m 461.625,348.277 v 10.246 -11.296 10.246" /></g><g
         id="g128"><path
           id="path130"
           style="fill:#000000;fill-opacity:1;fill-rule:nonzero;stroke:#000000;stroke-width:0.75;stroke-linecap:butt;stroke-linejoin:miter;stroke-miterlimit:10;stroke-dasharray:none;stroke-opacity:1"
           d="m 461.625,344.34 2.625,5.25 -2.625,-1.313 -2.625,1.313 z" /></g><g
         id="g132"><path
           id="path134"
           style="fill:#000000;fill-opacity:1;fill-rule:nonzero;stroke:#000000;stroke-width:0.75;stroke-linecap:butt;stroke-linejoin:miter;stroke-miterlimit:10;stroke-dasharray:none;stroke-opacity:1"
           d="m 461.625,361.41 -2.625,-5.25 2.625,1.313 2.625,-1.313 z" /></g><g
         id="g136"><path
           id="path138"
           style="fill:#ffffff;fill-opacity:1;fill-rule:nonzero;stroke:#000000;stroke-width:0.75;stroke-linecap:butt;stroke-linejoin:miter;stroke-miterlimit:4;stroke-dasharray:none;stroke-opacity:1"
           d="m 482.25,322.875 c 0,11.391 -9.234,20.625 -20.625,20.625 -11.391,0 -20.625,-9.234 -20.625,-20.625 0,-11.391 9.234,-20.625 20.625,-20.625 11.391,0 20.625,9.234 20.625,20.625 z" /></g><g
         id="g140"><path
           id="path142"
           style="fill:#ffffff;fill-opacity:1;fill-rule:nonzero;stroke:#000000;stroke-width:0.75;stroke-linecap:butt;stroke-linejoin:miter;stroke-miterlimit:4;stroke-dasharray:none;stroke-opacity:1"
           d="m 542.25,322.875 c 0,11.391 -9.234,20.625 -20.625,20.625 -11.391,0 -20.625,-9.234 -20.625,-20.625 0,-11.391 9.234,-20.625 20.625,-20.625 11.391,0 20.625,9.234 20.625,20.625 z" /></g><g
         id="g144"><path
           id="path146"
           style="fill:none;stroke:#000000;stroke-width:0.75;stroke-linecap:butt;stroke-linejoin:miter;stroke-miterlimit:10;stroke-dasharray:none;stroke-opacity:1"
           d="m 521.625,357.473 v -10.246 11.296 -10.246" /></g><g
         id="g148"><path
           id="path150"
           style="fill:#000000;fill-opacity:1;fill-rule:nonzero;stroke:#000000;stroke-width:0.75;stroke-linecap:butt;stroke-linejoin:miter;stroke-miterlimit:10;stroke-dasharray:none;stroke-opacity:1"
           d="m 521.625,361.41 -2.625,-5.25 2.625,1.313 2.625,-1.313 z" /></g><g
         id="g152"><path
           id="path154"
           style="fill:#000000;fill-opacity:1;fill-rule:nonzero;stroke:#000000;stroke-width:0.75;stroke-linecap:butt;stroke-linejoin:miter;stroke-miterlimit:10;stroke-dasharray:none;stroke-opacity:1"
           d="m 521.625,344.34 2.625,5.25 -2.625,-1.313 -2.625,1.313 z" /></g><g
         id="g156"><path
           id="path158"
           style="fill:#ffffff;fill-opacity:1;fill-rule:nonzero;stroke:#000000;stroke-width:0.75;stroke-linecap:butt;stroke-linejoin:miter;stroke-miterlimit:4;stroke-dasharray:none;stroke-opacity:1"
           d="m 542.25,382.875 c 0,11.391 -9.234,20.625 -20.625,20.625 -11.391,0 -20.625,-9.234 -20.625,-20.625 0,-11.391 9.234,-20.625 20.625,-20.625 11.391,0 20.625,9.234 20.625,20.625 z" /></g><g
         id="g160"><path
           id="path162"
           style="fill:none;stroke:#000000;stroke-width:0.75;stroke-linecap:butt;stroke-linejoin:miter;stroke-miterlimit:10;stroke-dasharray:none;stroke-opacity:1"
           d="M 443.664,364.914 419.586,340.836" /></g><g
         id="g164"><path
           id="path166"
           style="fill:#000000;fill-opacity:1;fill-rule:nonzero;stroke:#000000;stroke-width:0.75;stroke-linecap:butt;stroke-linejoin:miter;stroke-miterlimit:10;stroke-dasharray:none;stroke-opacity:1"
           d="m 446.445,367.695 -5.566,-1.851 2.785,-0.93 0.93,-2.785 z" /></g><g
         id="g168"><path
           id="path170"
           style="fill:#000000;fill-opacity:1;fill-rule:nonzero;stroke:#000000;stroke-width:0.75;stroke-linecap:butt;stroke-linejoin:miter;stroke-miterlimit:10;stroke-dasharray:none;stroke-opacity:1"
           d="m 416.805,338.055 5.566,1.851 -2.785,0.93 -0.93,2.785 z" /></g><g
         id="g172"><path
           id="path174"
           style="fill:#ffffff;fill-opacity:1;fill-rule:nonzero;stroke:#000000;stroke-width:0.75;stroke-linecap:butt;stroke-linejoin:miter;stroke-miterlimit:4;stroke-dasharray:none;stroke-opacity:1"
           d="m 482.25,382.875 c 0,11.391 -9.234,20.625 -20.625,20.625 -11.391,0 -20.625,-9.234 -20.625,-20.625 0,-11.391 9.234,-20.625 20.625,-20.625 11.391,0 20.625,9.234 20.625,20.625 z" /></g><g
         id="g176"><path
           id="path178"
           style="fill:none;stroke:#000000;stroke-width:0.75;stroke-linecap:butt;stroke-linejoin:miter;stroke-miterlimit:10;stroke-dasharray:none;stroke-opacity:1"
           d="m 401.625,357.473 v -10.246 11.296 -10.246" /></g><g
         id="g180"><path
           id="path182"
           style="fill:#000000;fill-opacity:1;fill-rule:nonzero;stroke:#000000;stroke-width:0.75;stroke-linecap:butt;stroke-linejoin:miter;stroke-miterlimit:10;stroke-dasharray:none;stroke-opacity:1"
           d="m 401.625,361.41 -2.625,-5.25 2.625,1.313 2.625,-1.313 z" /></g><g
         id="g184"><path
           id="path186"
           style="fill:#000000;fill-opacity:1;fill-rule:nonzero;stroke:#000000;stroke-width:0.75;stroke-linecap:butt;stroke-linejoin:miter;stroke-miterlimit:10;stroke-dasharray:none;stroke-opacity:1"
           d="m 401.625,344.34 2.625,5.25 -2.625,-1.313 -2.625,1.313 z" /></g><g
         id="g188"><path
           id="path190"
           style="fill:none;stroke:#000000;stroke-width:0.75;stroke-linecap:butt;stroke-linejoin:miter;stroke-miterlimit:10;stroke-dasharray:none;stroke-opacity:1"
           d="m 427.027,382.875 h 10.246 -11.296 10.246" /></g><g
         id="g192"><path
           id="path194"
           style="fill:#000000;fill-opacity:1;fill-rule:nonzero;stroke:#000000;stroke-width:0.75;stroke-linecap:butt;stroke-linejoin:miter;stroke-miterlimit:10;stroke-dasharray:none;stroke-opacity:1"
           d="m 423.09,382.875 5.25,-2.625 -1.313,2.625 1.313,2.625 z" /></g><g
         id="g196"><path
           id="path198"
           style="fill:#000000;fill-opacity:1;fill-rule:nonzero;stroke:#000000;stroke-width:0.75;stroke-linecap:butt;stroke-linejoin:miter;stroke-miterlimit:10;stroke-dasharray:none;stroke-opacity:1"
           d="m 440.16,382.875 -5.25,2.625 1.313,-2.625 -1.313,-2.625 z" /></g><g
         id="g200"><path
           id="path202"
           style="fill:none;stroke:#000000;stroke-width:0.75;stroke-linecap:butt;stroke-linejoin:miter;stroke-miterlimit:10;stroke-dasharray:none;stroke-opacity:1"
           d="m 419.586,364.914 24.078,-24.078" /></g><g
         id="g204"><path
           id="path206"
           style="fill:#000000;fill-opacity:1;fill-rule:nonzero;stroke:#000000;stroke-width:0.75;stroke-linecap:butt;stroke-linejoin:miter;stroke-miterlimit:10;stroke-dasharray:none;stroke-opacity:1"
           d="m 416.805,367.695 1.851,-5.566 0.93,2.785 2.785,0.93 z" /></g><g
         id="g208"><path
           id="path210"
           style="fill:#000000;fill-opacity:1;fill-rule:nonzero;stroke:#000000;stroke-width:0.75;stroke-linecap:butt;stroke-linejoin:miter;stroke-miterlimit:10;stroke-dasharray:none;stroke-opacity:1"
           d="m 446.445,338.055 -1.851,5.566 -0.93,-2.785 -2.785,-0.93 z" /></g><g
         id="g212"><path
           id="path214"
           style="fill:#ffffff;fill-opacity:1;fill-rule:nonzero;stroke:#000000;stroke-width:0.75;stroke-linecap:butt;stroke-linejoin:miter;stroke-miterlimit:4;stroke-dasharray:none;stroke-opacity:1"
           d="m 422.25,382.875 c 0,11.391 -9.234,20.625 -20.625,20.625 -11.391,0 -20.625,-9.234 -20.625,-20.625 0,-11.391 9.234,-20.625 20.625,-20.625 11.391,0 20.625,9.234 20.625,20.625 z" /></g><g
         id="g216"><path
           id="path218"
           style="fill:#ffffff;fill-opacity:1;fill-rule:nonzero;stroke:#000000;stroke-width:0.75;stroke-linecap:butt;stroke-linejoin:miter;stroke-miterlimit:4;stroke-dasharray:none;stroke-opacity:1"
           d="m 362.25,442.875 c 0,11.391 -9.234,20.625 -20.625,20.625 -11.391,0 -20.625,-9.234 -20.625,-20.625 0,-11.391 9.234,-20.625 20.625,-20.625 11.391,0 20.625,9.234 20.625,20.625 z" /></g><g
         id="g220"><path
           id="path222"
           style="fill:none;stroke:#000000;stroke-width:0.75;stroke-linecap:butt;stroke-linejoin:miter;stroke-miterlimit:10;stroke-dasharray:none;stroke-opacity:1"
           d="m 461.625,417.473 v -10.246 11.296 -10.246" /></g><g
         id="g224"><path
           id="path226"
           style="fill:#000000;fill-opacity:1;fill-rule:nonzero;stroke:#000000;stroke-width:0.75;stroke-linecap:butt;stroke-linejoin:miter;stroke-miterlimit:10;stroke-dasharray:none;stroke-opacity:1"
           d="m 461.625,421.41 -2.625,-5.25 2.625,1.313 2.625,-1.313 z" /></g><g
         id="g228"><path
           id="path230"
           style="fill:#000000;fill-opacity:1;fill-rule:nonzero;stroke:#000000;stroke-width:0.75;stroke-linecap:butt;stroke-linejoin:miter;stroke-miterlimit:10;stroke-dasharray:none;stroke-opacity:1"
           d="m 461.625,404.34 2.625,5.25 -2.625,-1.313 -2.625,1.313 z" /></g><g
         id="g232"><path
           id="path234"
           style="fill:#ffffff;fill-opacity:1;fill-rule:nonzero;stroke:#000000;stroke-width:0.75;stroke-linecap:butt;stroke-linejoin:miter;stroke-miterlimit:4;stroke-dasharray:none;stroke-opacity:1"
           d="m 482.25,442.875 c 0,11.391 -9.234,20.625 -20.625,20.625 -11.391,0 -20.625,-9.234 -20.625,-20.625 0,-11.391 9.234,-20.625 20.625,-20.625 11.391,0 20.625,9.234 20.625,20.625 z" /></g><text
         id="text246"
         style="font-variant:normal;font-weight:normal;font-size:12px;font-family:Arial;-inkscape-font-specification:ArialMT;writing-mode:lr-tb;fill:#000000;fill-opacity:1;fill-rule:nonzero;stroke:none"
         transform="translate(31.625977,22.5)"><tspan
           id="tspan236"
           y="0"
           x="0 7.7879062 10.453922 16.453922 23.12775 29.801579 32.467594 35.13361 41.13361 43.799625 50.473454 54.469547 61.143375 67.8172 74.491028 77.825012 81.158997 89.162903 95.836731 102.51056 109.18439 115.85822 122.53204 129.20587 133.20197 139.87579 143.20978 151.21368 157.88751 163.88751 166.55353 169.88751 172.55353 179.22736 185.90118 192.57501">Visualisierung: Begehbare Positionen</tspan><tspan
           id="tspan238"
           y="15"
           x="8.9091845 11.5752 18.249027 24.249027 26.915043 33.588871 39.588871 42.254887 48.254887 54.928715 58.924809 62.258793 69.588875 76.262703 82.262703 85.596687 92.270515 98.944344 105.61817 108.95216 115.62598 122.29981 128.2998 134.2998 140.97363 147.64746 150.98145 159.64746 166.32129 172.99512 179.66895 186.34277">inklusiver Zustand dessen Ränder</tspan><tspan
           id="tspan240"
           y="6"
           x="316.57031 324.57422 331.24805 337.92188 343.92188 350.5957 353.92969 360.60352 363.9375 367.27148 375.27539 379.27148 385.27148 388.60547 395.2793 397.94531 400.61133 407.28516 413.95898 420.63281 423.9668 430.64062 437.31445 441.31055 444.64453 452.64844 459.32227 465.99609 469.33008 476.00391">Phase 1: Erstellung der Knoten</tspan><tspan
           id="tspan242"
           y="255"
           x="326.90918 334.91309 341.58691 348.26074 354.26074 360.93457 364.26855 370.94238 374.27637 377.61035 385.61426 389.61035 395.61035 398.94434 405.61816 408.28418 410.9502 417.62402 424.29785 430.97168 434.30566 442.30957 448.9834 455.65723 458.99121 465.66504">Phase 3: Erstellung Kanten</tspan><tspan
           id="tspan244"
           y="270"
           x="338.91797 345.5918 348.25781 354.93164 361.60547 368.2793 374.95312 381.62695 384.29297 390.9668 394.96289 398.29688 404.9707 411.64453 418.31836 421.65234 427.65234 433.65234 440.32617 444.32227 446.98828 450.32227 453.65625">diagonaler Laufschritte</tspan></text>
<g
         id="g248"><path
           id="path250"
           style="fill:none;stroke:#000000;stroke-width:0.75;stroke-linecap:butt;stroke-linejoin:miter;stroke-miterlimit:10;stroke-dasharray:none;stroke-opacity:1"
           d="M 67.027,562.875 H 77.273 65.977 76.223" /></g><g
         id="g252"><path
           id="path254"
           style="fill:#000000;fill-opacity:1;fill-rule:nonzero;stroke:#000000;stroke-width:0.75;stroke-linecap:butt;stroke-linejoin:miter;stroke-miterlimit:10;stroke-dasharray:none;stroke-opacity:1"
           d="m 63.09,562.875 5.25,-2.625 -1.313,2.625 1.313,2.625 z" /></g><g
         id="g256"><path
           id="path258"
           style="fill:#000000;fill-opacity:1;fill-rule:nonzero;stroke:#000000;stroke-width:0.75;stroke-linecap:butt;stroke-linejoin:miter;stroke-miterlimit:10;stroke-dasharray:none;stroke-opacity:1"
           d="m 80.16,562.875 -5.25,2.625 1.313,-2.625 -1.313,-2.625 z" /></g><g
         id="g260"><path
           id="path262"
           style="fill:#ffffff;fill-opacity:1;fill-rule:nonzero;stroke:#000000;stroke-width:0.75;stroke-linecap:butt;stroke-linejoin:miter;stroke-miterlimit:4;stroke-dasharray:none;stroke-opacity:1"
           d="M 62.25,562.875 C 62.25,574.266 53.016,583.5 41.625,583.5 30.234,583.5 21,574.266 21,562.875 c 0,-11.391 9.234,-20.625 20.625,-20.625 11.391,0 20.625,9.234 20.625,20.625 z" /></g><g
         id="g264"><path
           id="path266"
           style="fill:none;stroke:#000000;stroke-width:0.75;stroke-linecap:butt;stroke-linejoin:miter;stroke-miterlimit:10;stroke-dasharray:none;stroke-opacity:1"
           d="m 127.027,562.875 h 10.246 -11.296 10.246" /></g><g
         id="g268"><path
           id="path270"
           style="fill:#000000;fill-opacity:1;fill-rule:nonzero;stroke:#000000;stroke-width:0.75;stroke-linecap:butt;stroke-linejoin:miter;stroke-miterlimit:10;stroke-dasharray:none;stroke-opacity:1"
           d="m 123.09,562.875 5.25,-2.625 -1.313,2.625 1.313,2.625 z" /></g><g
         id="g272"><path
           id="path274"
           style="fill:#000000;fill-opacity:1;fill-rule:nonzero;stroke:#000000;stroke-width:0.75;stroke-linecap:butt;stroke-linejoin:miter;stroke-miterlimit:10;stroke-dasharray:none;stroke-opacity:1"
           d="m 140.16,562.875 -5.25,2.625 1.313,-2.625 -1.313,-2.625 z" /></g><g
         id="g276"><path
           id="path278"
           style="fill:#ffffff;fill-opacity:1;fill-rule:nonzero;stroke:#000000;stroke-width:0.75;stroke-linecap:butt;stroke-linejoin:miter;stroke-miterlimit:4;stroke-dasharray:none;stroke-opacity:1"
           d="m 122.25,562.875 c 0,11.391 -9.234,20.625 -20.625,20.625 C 90.234,583.5 81,574.266 81,562.875 c 0,-11.391 9.234,-20.625 20.625,-20.625 11.391,0 20.625,9.234 20.625,20.625 z" /></g><g
         id="g280"><path
           id="path282"
           style="fill:none;stroke:#000000;stroke-width:0.75;stroke-linecap:butt;stroke-linejoin:miter;stroke-miterlimit:10;stroke-dasharray:none;stroke-opacity:1"
           d="m 161.625,588.277 v 10.246 -11.296 10.246" /></g><g
         id="g284"><path
           id="path286"
           style="fill:#000000;fill-opacity:1;fill-rule:nonzero;stroke:#000000;stroke-width:0.75;stroke-linecap:butt;stroke-linejoin:miter;stroke-miterlimit:10;stroke-dasharray:none;stroke-opacity:1"
           d="m 161.625,584.34 2.625,5.25 -2.625,-1.313 -2.625,1.313 z" /></g><g
         id="g288"><path
           id="path290"
           style="fill:#000000;fill-opacity:1;fill-rule:nonzero;stroke:#000000;stroke-width:0.75;stroke-linecap:butt;stroke-linejoin:miter;stroke-miterlimit:10;stroke-dasharray:none;stroke-opacity:1"
           d="m 161.625,601.41 -2.625,-5.25 2.625,1.313 2.625,-1.313 z" /></g><g
         id="g292"><path
           id="path294"
           style="fill:#ffffff;fill-opacity:1;fill-rule:nonzero;stroke:#000000;stroke-width:0.75;stroke-linecap:butt;stroke-linejoin:miter;stroke-miterlimit:4;stroke-dasharray:none;stroke-opacity:1"
           d="m 182.25,562.875 c 0,11.391 -9.234,20.625 -20.625,20.625 -11.391,0 -20.625,-9.234 -20.625,-20.625 0,-11.391 9.234,-20.625 20.625,-20.625 11.391,0 20.625,9.234 20.625,20.625 z" /></g><g
         id="g296"><path
           id="path298"
           style="fill:#ffffff;fill-opacity:1;fill-rule:nonzero;stroke:#000000;stroke-width:0.75;stroke-linecap:butt;stroke-linejoin:miter;stroke-miterlimit:4;stroke-dasharray:none;stroke-opacity:1"
           d="m 242.25,562.875 c 0,11.391 -9.234,20.625 -20.625,20.625 -11.391,0 -20.625,-9.234 -20.625,-20.625 0,-11.391 9.234,-20.625 20.625,-20.625 11.391,0 20.625,9.234 20.625,20.625 z" /></g><g
         id="g300"><path
           id="path302"
           style="fill:none;stroke:#000000;stroke-width:0.75;stroke-linecap:butt;stroke-linejoin:miter;stroke-miterlimit:10;stroke-dasharray:none;stroke-opacity:1"
           d="m 221.625,597.473 v -10.246 11.296 -10.246" /></g><g
         id="g304"><path
           id="path306"
           style="fill:#000000;fill-opacity:1;fill-rule:nonzero;stroke:#000000;stroke-width:0.75;stroke-linecap:butt;stroke-linejoin:miter;stroke-miterlimit:10;stroke-dasharray:none;stroke-opacity:1"
           d="m 221.625,601.41 -2.625,-5.25 2.625,1.313 2.625,-1.313 z" /></g><g
         id="g308"><path
           id="path310"
           style="fill:#000000;fill-opacity:1;fill-rule:nonzero;stroke:#000000;stroke-width:0.75;stroke-linecap:butt;stroke-linejoin:miter;stroke-miterlimit:10;stroke-dasharray:none;stroke-opacity:1"
           d="m 221.625,584.34 2.625,5.25 -2.625,-1.313 -2.625,1.313 z" /></g><g
         id="g312"><path
           id="path314"
           style="fill:none;stroke:#001dbc;stroke-width:0.75;stroke-linecap:butt;stroke-linejoin:miter;stroke-miterlimit:10;stroke-dasharray:none;stroke-opacity:1"
           d="m 221.625,643.5 v 76.875 h -180 v -12.098" /></g><g
         id="g316"><path
           id="path318"
           style="fill:#001dbc;fill-opacity:1;fill-rule:nonzero;stroke:#001dbc;stroke-width:0.75;stroke-linecap:butt;stroke-linejoin:miter;stroke-miterlimit:10;stroke-dasharray:none;stroke-opacity:1"
           d="m 41.625,704.34 2.625,5.25 -2.625,-1.313 L 39,709.59 Z" /></g><g
         id="g320"><path
           id="path322"
           style="fill:#ffffff;fill-opacity:1;fill-rule:nonzero;stroke:#000000;stroke-width:0.75;stroke-linecap:butt;stroke-linejoin:miter;stroke-miterlimit:4;stroke-dasharray:none;stroke-opacity:1"
           d="m 242.25,622.875 c 0,11.391 -9.234,20.625 -20.625,20.625 -11.391,0 -20.625,-9.234 -20.625,-20.625 0,-11.391 9.234,-20.625 20.625,-20.625 11.391,0 20.625,9.234 20.625,20.625 z" /></g><g
         id="g324"><path
           id="path326"
           style="fill:none;stroke:#000000;stroke-width:0.75;stroke-linecap:butt;stroke-linejoin:miter;stroke-miterlimit:10;stroke-dasharray:none;stroke-opacity:1"
           d="M 143.664,604.914 119.586,580.836" /></g><g
         id="g328"><path
           id="path330"
           style="fill:#000000;fill-opacity:1;fill-rule:nonzero;stroke:#000000;stroke-width:0.75;stroke-linecap:butt;stroke-linejoin:miter;stroke-miterlimit:10;stroke-dasharray:none;stroke-opacity:1"
           d="m 146.445,607.695 -5.566,-1.851 2.785,-0.93 0.93,-2.785 z" /></g><g
         id="g332"><path
           id="path334"
           style="fill:#000000;fill-opacity:1;fill-rule:nonzero;stroke:#000000;stroke-width:0.75;stroke-linecap:butt;stroke-linejoin:miter;stroke-miterlimit:10;stroke-dasharray:none;stroke-opacity:1"
           d="m 116.805,578.055 5.566,1.851 -2.785,0.93 -0.93,2.785 z" /></g><g
         id="g336"><path
           id="path338"
           style="fill:none;stroke:#001dbc;stroke-width:0.75;stroke-linecap:butt;stroke-linejoin:miter;stroke-miterlimit:10;stroke-dasharray:none;stroke-opacity:1"
           d="m 182.25,622.875 h 13.973" /></g><g
         id="g340"><path
           id="path342"
           style="fill:#001dbc;fill-opacity:1;fill-rule:nonzero;stroke:#001dbc;stroke-width:0.75;stroke-linecap:butt;stroke-linejoin:miter;stroke-miterlimit:10;stroke-dasharray:none;stroke-opacity:1"
           d="m 200.16,622.875 -5.25,2.625 1.313,-2.625 -1.313,-2.625 z" /></g><g
         id="g344"><path
           id="path346"
           style="fill:#ffffff;fill-opacity:1;fill-rule:nonzero;stroke:#000000;stroke-width:0.75;stroke-linecap:butt;stroke-linejoin:miter;stroke-miterlimit:4;stroke-dasharray:none;stroke-opacity:1"
           d="m 182.25,622.875 c 0,11.391 -9.234,20.625 -20.625,20.625 -11.391,0 -20.625,-9.234 -20.625,-20.625 0,-11.391 9.234,-20.625 20.625,-20.625 11.391,0 20.625,9.234 20.625,20.625 z" /></g><g
         id="g348"><path
           id="path350"
           style="fill:none;stroke:#000000;stroke-width:0.75;stroke-linecap:butt;stroke-linejoin:miter;stroke-miterlimit:10;stroke-dasharray:none;stroke-opacity:1"
           d="m 101.625,597.473 v -10.246 11.296 -10.246" /></g><g
         id="g352"><path
           id="path354"
           style="fill:#000000;fill-opacity:1;fill-rule:nonzero;stroke:#000000;stroke-width:0.75;stroke-linecap:butt;stroke-linejoin:miter;stroke-miterlimit:10;stroke-dasharray:none;stroke-opacity:1"
           d="M 101.625,601.41 99,596.16 l 2.625,1.313 2.625,-1.313 z" /></g><g
         id="g356"><path
           id="path358"
           style="fill:#000000;fill-opacity:1;fill-rule:nonzero;stroke:#000000;stroke-width:0.75;stroke-linecap:butt;stroke-linejoin:miter;stroke-miterlimit:10;stroke-dasharray:none;stroke-opacity:1"
           d="m 101.625,584.34 2.625,5.25 -2.625,-1.313 L 99,589.59 Z" /></g><g
         id="g360"><path
           id="path362"
           style="fill:none;stroke:#000000;stroke-width:0.75;stroke-linecap:butt;stroke-linejoin:miter;stroke-miterlimit:10;stroke-dasharray:none;stroke-opacity:1"
           d="m 127.027,622.875 h 10.246 -11.296 10.246" /></g><g
         id="g364"><path
           id="path366"
           style="fill:#000000;fill-opacity:1;fill-rule:nonzero;stroke:#000000;stroke-width:0.75;stroke-linecap:butt;stroke-linejoin:miter;stroke-miterlimit:10;stroke-dasharray:none;stroke-opacity:1"
           d="m 123.09,622.875 5.25,-2.625 -1.313,2.625 1.313,2.625 z" /></g><g
         id="g368"><path
           id="path370"
           style="fill:#000000;fill-opacity:1;fill-rule:nonzero;stroke:#000000;stroke-width:0.75;stroke-linecap:butt;stroke-linejoin:miter;stroke-miterlimit:10;stroke-dasharray:none;stroke-opacity:1"
           d="m 140.16,622.875 -5.25,2.625 1.313,-2.625 -1.313,-2.625 z" /></g><g
         id="g372"><path
           id="path374"
           style="fill:none;stroke:#000000;stroke-width:0.75;stroke-linecap:butt;stroke-linejoin:miter;stroke-miterlimit:10;stroke-dasharray:none;stroke-opacity:1"
           d="m 119.586,604.914 24.078,-24.078" /></g><g
         id="g376"><path
           id="path378"
           style="fill:#000000;fill-opacity:1;fill-rule:nonzero;stroke:#000000;stroke-width:0.75;stroke-linecap:butt;stroke-linejoin:miter;stroke-miterlimit:10;stroke-dasharray:none;stroke-opacity:1"
           d="m 116.805,607.695 1.851,-5.566 0.93,2.785 2.785,0.93 z" /></g><g
         id="g380"><path
           id="path382"
           style="fill:#000000;fill-opacity:1;fill-rule:nonzero;stroke:#000000;stroke-width:0.75;stroke-linecap:butt;stroke-linejoin:miter;stroke-miterlimit:10;stroke-dasharray:none;stroke-opacity:1"
           d="m 146.445,578.055 -1.851,5.566 -0.93,-2.785 -2.785,-0.93 z" /></g><g
         id="g384"><path
           id="path386"
           style="fill:#ffffff;fill-opacity:1;fill-rule:nonzero;stroke:#000000;stroke-width:0.75;stroke-linecap:butt;stroke-linejoin:miter;stroke-miterlimit:4;stroke-dasharray:none;stroke-opacity:1"
           d="m 122.25,622.875 c 0,11.391 -9.234,20.625 -20.625,20.625 C 90.234,643.5 81,634.266 81,622.875 c 0,-11.391 9.234,-20.625 20.625,-20.625 11.391,0 20.625,9.234 20.625,20.625 z" /></g><g
         id="g388"><path
           id="path390"
           style="fill:#ffffff;fill-opacity:1;fill-rule:nonzero;stroke:#000000;stroke-width:0.75;stroke-linecap:butt;stroke-linejoin:miter;stroke-miterlimit:4;stroke-dasharray:none;stroke-opacity:1"
           d="M 62.25,682.875 C 62.25,694.266 53.016,703.5 41.625,703.5 30.234,703.5 21,694.266 21,682.875 c 0,-11.391 9.234,-20.625 20.625,-20.625 11.391,0 20.625,9.234 20.625,20.625 z" /></g><g
         id="g392"><path
           id="path394"
           style="fill:none;stroke:#000000;stroke-width:0.75;stroke-linecap:butt;stroke-linejoin:miter;stroke-miterlimit:10;stroke-dasharray:none;stroke-opacity:1"
           d="m 161.625,657.473 v -10.246 11.296 -10.246" /></g><g
         id="g396"><path
           id="path398"
           style="fill:#000000;fill-opacity:1;fill-rule:nonzero;stroke:#000000;stroke-width:0.75;stroke-linecap:butt;stroke-linejoin:miter;stroke-miterlimit:10;stroke-dasharray:none;stroke-opacity:1"
           d="m 161.625,661.41 -2.625,-5.25 2.625,1.313 2.625,-1.313 z" /></g><g
         id="g400"><path
           id="path402"
           style="fill:#000000;fill-opacity:1;fill-rule:nonzero;stroke:#000000;stroke-width:0.75;stroke-linecap:butt;stroke-linejoin:miter;stroke-miterlimit:10;stroke-dasharray:none;stroke-opacity:1"
           d="m 161.625,644.34 2.625,5.25 -2.625,-1.313 -2.625,1.313 z" /></g><g
         id="g404"><path
           id="path406"
           style="fill:#ffffff;fill-opacity:1;fill-rule:nonzero;stroke:#000000;stroke-width:0.75;stroke-linecap:butt;stroke-linejoin:miter;stroke-miterlimit:4;stroke-dasharray:none;stroke-opacity:1"
           d="m 182.25,682.875 c 0,11.391 -9.234,20.625 -20.625,20.625 -11.391,0 -20.625,-9.234 -20.625,-20.625 0,-11.391 9.234,-20.625 20.625,-20.625 11.391,0 20.625,9.234 20.625,20.625 z" /></g><text
         id="text410"
         style="font-variant:normal;font-weight:normal;font-size:12px;font-family:Arial;-inkscape-font-specification:ArialMT;writing-mode:lr-tb;fill:#000000;fill-opacity:1;fill-rule:nonzero;stroke:none"
         transform="translate(17.179688,517.5)"><tspan
           id="tspan408"
           y="0"
           x="0 8.0039062 14.677734 21.351562 27.351562 34.025391 37.359375 44.033203 47.367188 50.701172 58.705078 62.701172 68.701172 72.035156 78.708984 81.375 84.041016 90.714844 97.388672 104.0625 107.39648 115.40039 122.07422 128.74805 132.08203 138.75586 145.42969 148.54767 155.43375 159.42984 166.10367 172.7775 178.7775 185.45132 192.12515 196.12125 199.45523 208.12125 214.79507 221.4689">Phase 4: Erstellung Kanten Transportwege</tspan></text>
<text
         id="text416"
         style="font-variant:normal;font-weight:bold;font-size:9px;font-family:Arial;-inkscape-font-specification:Arial-BoldMT;writing-mode:lr-tb;fill:#001dbc;fill-opacity:1;fill-rule:nonzero;stroke:none"
         transform="translate(188.74731,615.75)"><tspan
           id="tspan412"
           y="0"
           x="0">3</tspan><tspan
           id="tspan414"
           y="98.25"
           x="-66">1</tspan></text>
<g
         id="g418"><path
           id="path420"
           style="fill:none;stroke:#000000;stroke-width:0.75;stroke-linecap:butt;stroke-linejoin:miter;stroke-miterlimit:10;stroke-dasharray:none;stroke-opacity:1"
           d="M 67.027,322.875 H 77.273 65.977 76.223" /></g><g
         id="g422"><path
           id="path424"
           style="fill:#000000;fill-opacity:1;fill-rule:nonzero;stroke:#000000;stroke-width:0.75;stroke-linecap:butt;stroke-linejoin:miter;stroke-miterlimit:10;stroke-dasharray:none;stroke-opacity:1"
           d="m 63.09,322.875 5.25,-2.625 -1.313,2.625 1.313,2.625 z" /></g><g
         id="g426"><path
           id="path428"
           style="fill:#000000;fill-opacity:1;fill-rule:nonzero;stroke:#000000;stroke-width:0.75;stroke-linecap:butt;stroke-linejoin:miter;stroke-miterlimit:10;stroke-dasharray:none;stroke-opacity:1"
           d="m 80.16,322.875 -5.25,2.625 1.313,-2.625 -1.313,-2.625 z" /></g><g
         id="g430"><path
           id="path432"
           style="fill:#ffffff;fill-opacity:1;fill-rule:nonzero;stroke:#000000;stroke-width:0.75;stroke-linecap:butt;stroke-linejoin:miter;stroke-miterlimit:4;stroke-dasharray:none;stroke-opacity:1"
           d="M 62.25,322.875 C 62.25,334.266 53.016,343.5 41.625,343.5 30.234,343.5 21,334.266 21,322.875 c 0,-11.391 9.234,-20.625 20.625,-20.625 11.391,0 20.625,9.234 20.625,20.625 z" /></g><g
         id="g434"><path
           id="path436"
           style="fill:none;stroke:#000000;stroke-width:0.75;stroke-linecap:butt;stroke-linejoin:miter;stroke-miterlimit:10;stroke-dasharray:none;stroke-opacity:1"
           d="m 127.027,322.875 h 10.246 -11.296 10.246" /></g><g
         id="g438"><path
           id="path440"
           style="fill:#000000;fill-opacity:1;fill-rule:nonzero;stroke:#000000;stroke-width:0.75;stroke-linecap:butt;stroke-linejoin:miter;stroke-miterlimit:10;stroke-dasharray:none;stroke-opacity:1"
           d="m 123.09,322.875 5.25,-2.625 -1.313,2.625 1.313,2.625 z" /></g><g
         id="g442"><path
           id="path444"
           style="fill:#000000;fill-opacity:1;fill-rule:nonzero;stroke:#000000;stroke-width:0.75;stroke-linecap:butt;stroke-linejoin:miter;stroke-miterlimit:10;stroke-dasharray:none;stroke-opacity:1"
           d="m 140.16,322.875 -5.25,2.625 1.313,-2.625 -1.313,-2.625 z" /></g><g
         id="g446"><path
           id="path448"
           style="fill:#ffffff;fill-opacity:1;fill-rule:nonzero;stroke:#000000;stroke-width:0.75;stroke-linecap:butt;stroke-linejoin:miter;stroke-miterlimit:4;stroke-dasharray:none;stroke-opacity:1"
           d="m 122.25,322.875 c 0,11.391 -9.234,20.625 -20.625,20.625 C 90.234,343.5 81,334.266 81,322.875 c 0,-11.391 9.234,-20.625 20.625,-20.625 11.391,0 20.625,9.234 20.625,20.625 z" /></g><g
         id="g450"><path
           id="path452"
           style="fill:none;stroke:#000000;stroke-width:0.75;stroke-linecap:butt;stroke-linejoin:miter;stroke-miterlimit:10;stroke-dasharray:none;stroke-opacity:1"
           d="m 161.625,348.277 v 10.246 -11.296 10.246" /></g><g
         id="g454"><path
           id="path456"
           style="fill:#000000;fill-opacity:1;fill-rule:nonzero;stroke:#000000;stroke-width:0.75;stroke-linecap:butt;stroke-linejoin:miter;stroke-miterlimit:10;stroke-dasharray:none;stroke-opacity:1"
           d="m 161.625,344.34 2.625,5.25 -2.625,-1.313 -2.625,1.313 z" /></g><g
         id="g458"><path
           id="path460"
           style="fill:#000000;fill-opacity:1;fill-rule:nonzero;stroke:#000000;stroke-width:0.75;stroke-linecap:butt;stroke-linejoin:miter;stroke-miterlimit:10;stroke-dasharray:none;stroke-opacity:1"
           d="m 161.625,361.41 -2.625,-5.25 2.625,1.313 2.625,-1.313 z" /></g><g
         id="g462"><path
           id="path464"
           style="fill:#ffffff;fill-opacity:1;fill-rule:nonzero;stroke:#000000;stroke-width:0.75;stroke-linecap:butt;stroke-linejoin:miter;stroke-miterlimit:4;stroke-dasharray:none;stroke-opacity:1"
           d="m 182.25,322.875 c 0,11.391 -9.234,20.625 -20.625,20.625 -11.391,0 -20.625,-9.234 -20.625,-20.625 0,-11.391 9.234,-20.625 20.625,-20.625 11.391,0 20.625,9.234 20.625,20.625 z" /></g><g
         id="g466"><path
           id="path468"
           style="fill:#ffffff;fill-opacity:1;fill-rule:nonzero;stroke:#000000;stroke-width:0.75;stroke-linecap:butt;stroke-linejoin:miter;stroke-miterlimit:4;stroke-dasharray:none;stroke-opacity:1"
           d="m 242.25,322.875 c 0,11.391 -9.234,20.625 -20.625,20.625 -11.391,0 -20.625,-9.234 -20.625,-20.625 0,-11.391 9.234,-20.625 20.625,-20.625 11.391,0 20.625,9.234 20.625,20.625 z" /></g><g
         id="g470"><path
           id="path472"
           style="fill:none;stroke:#000000;stroke-width:0.75;stroke-linecap:butt;stroke-linejoin:miter;stroke-miterlimit:10;stroke-dasharray:none;stroke-opacity:1"
           d="m 221.625,357.473 v -10.246 11.296 -10.246" /></g><g
         id="g474"><path
           id="path476"
           style="fill:#000000;fill-opacity:1;fill-rule:nonzero;stroke:#000000;stroke-width:0.75;stroke-linecap:butt;stroke-linejoin:miter;stroke-miterlimit:10;stroke-dasharray:none;stroke-opacity:1"
           d="m 221.625,361.41 -2.625,-5.25 2.625,1.313 2.625,-1.313 z" /></g><g
         id="g478"><path
           id="path480"
           style="fill:#000000;fill-opacity:1;fill-rule:nonzero;stroke:#000000;stroke-width:0.75;stroke-linecap:butt;stroke-linejoin:miter;stroke-miterlimit:10;stroke-dasharray:none;stroke-opacity:1"
           d="m 221.625,344.34 2.625,5.25 -2.625,-1.313 -2.625,1.313 z" /></g><g
         id="g482"><path
           id="path484"
           style="fill:#ffffff;fill-opacity:1;fill-rule:nonzero;stroke:#000000;stroke-width:0.75;stroke-linecap:butt;stroke-linejoin:miter;stroke-miterlimit:4;stroke-dasharray:none;stroke-opacity:1"
           d="m 242.25,382.875 c 0,11.391 -9.234,20.625 -20.625,20.625 -11.391,0 -20.625,-9.234 -20.625,-20.625 0,-11.391 9.234,-20.625 20.625,-20.625 11.391,0 20.625,9.234 20.625,20.625 z" /></g><g
         id="g486"><path
           id="path488"
           style="fill:#ffffff;fill-opacity:1;fill-rule:nonzero;stroke:#000000;stroke-width:0.75;stroke-linecap:butt;stroke-linejoin:miter;stroke-miterlimit:4;stroke-dasharray:none;stroke-opacity:1"
           d="m 182.25,382.875 c 0,11.391 -9.234,20.625 -20.625,20.625 -11.391,0 -20.625,-9.234 -20.625,-20.625 0,-11.391 9.234,-20.625 20.625,-20.625 11.391,0 20.625,9.234 20.625,20.625 z" /></g><g
         id="g490"><path
           id="path492"
           style="fill:none;stroke:#000000;stroke-width:0.75;stroke-linecap:butt;stroke-linejoin:miter;stroke-miterlimit:10;stroke-dasharray:none;stroke-opacity:1"
           d="m 101.625,357.473 v -10.246 11.296 -10.246" /></g><g
         id="g494"><path
           id="path496"
           style="fill:#000000;fill-opacity:1;fill-rule:nonzero;stroke:#000000;stroke-width:0.75;stroke-linecap:butt;stroke-linejoin:miter;stroke-miterlimit:10;stroke-dasharray:none;stroke-opacity:1"
           d="M 101.625,361.41 99,356.16 l 2.625,1.313 2.625,-1.313 z" /></g><g
         id="g498"><path
           id="path500"
           style="fill:#000000;fill-opacity:1;fill-rule:nonzero;stroke:#000000;stroke-width:0.75;stroke-linecap:butt;stroke-linejoin:miter;stroke-miterlimit:10;stroke-dasharray:none;stroke-opacity:1"
           d="m 101.625,344.34 2.625,5.25 -2.625,-1.313 L 99,349.59 Z" /></g><g
         id="g502"><path
           id="path504"
           style="fill:none;stroke:#000000;stroke-width:0.75;stroke-linecap:butt;stroke-linejoin:miter;stroke-miterlimit:10;stroke-dasharray:none;stroke-opacity:1"
           d="m 127.027,382.875 h 10.246 -11.296 10.246" /></g><g
         id="g506"><path
           id="path508"
           style="fill:#000000;fill-opacity:1;fill-rule:nonzero;stroke:#000000;stroke-width:0.75;stroke-linecap:butt;stroke-linejoin:miter;stroke-miterlimit:10;stroke-dasharray:none;stroke-opacity:1"
           d="m 123.09,382.875 5.25,-2.625 -1.313,2.625 1.313,2.625 z" /></g><g
         id="g510"><path
           id="path512"
           style="fill:#000000;fill-opacity:1;fill-rule:nonzero;stroke:#000000;stroke-width:0.75;stroke-linecap:butt;stroke-linejoin:miter;stroke-miterlimit:10;stroke-dasharray:none;stroke-opacity:1"
           d="m 140.16,382.875 -5.25,2.625 1.313,-2.625 -1.313,-2.625 z" /></g><g
         id="g514"><path
           id="path516"
           style="fill:#ffffff;fill-opacity:1;fill-rule:nonzero;stroke:#000000;stroke-width:0.75;stroke-linecap:butt;stroke-linejoin:miter;stroke-miterlimit:4;stroke-dasharray:none;stroke-opacity:1"
           d="m 122.25,382.875 c 0,11.391 -9.234,20.625 -20.625,20.625 C 90.234,403.5 81,394.266 81,382.875 c 0,-11.391 9.234,-20.625 20.625,-20.625 11.391,0 20.625,9.234 20.625,20.625 z" /></g><g
         id="g518"><path
           id="path520"
           style="fill:#ffffff;fill-opacity:1;fill-rule:nonzero;stroke:#000000;stroke-width:0.75;stroke-linecap:butt;stroke-linejoin:miter;stroke-miterlimit:4;stroke-dasharray:none;stroke-opacity:1"
           d="M 62.25,442.875 C 62.25,454.266 53.016,463.5 41.625,463.5 30.234,463.5 21,454.266 21,442.875 c 0,-11.391 9.234,-20.625 20.625,-20.625 11.391,0 20.625,9.234 20.625,20.625 z" /></g><g
         id="g522"><path
           id="path524"
           style="fill:none;stroke:#000000;stroke-width:0.75;stroke-linecap:butt;stroke-linejoin:miter;stroke-miterlimit:10;stroke-dasharray:none;stroke-opacity:1"
           d="m 161.625,417.473 v -10.246 11.296 -10.246" /></g><g
         id="g526"><path
           id="path528"
           style="fill:#000000;fill-opacity:1;fill-rule:nonzero;stroke:#000000;stroke-width:0.75;stroke-linecap:butt;stroke-linejoin:miter;stroke-miterlimit:10;stroke-dasharray:none;stroke-opacity:1"
           d="m 161.625,421.41 -2.625,-5.25 2.625,1.313 2.625,-1.313 z" /></g><g
         id="g530"><path
           id="path532"
           style="fill:#000000;fill-opacity:1;fill-rule:nonzero;stroke:#000000;stroke-width:0.75;stroke-linecap:butt;stroke-linejoin:miter;stroke-miterlimit:10;stroke-dasharray:none;stroke-opacity:1"
           d="m 161.625,404.34 2.625,5.25 -2.625,-1.313 -2.625,1.313 z" /></g><g
         id="g534"><path
           id="path536"
           style="fill:#ffffff;fill-opacity:1;fill-rule:nonzero;stroke:#000000;stroke-width:0.75;stroke-linecap:butt;stroke-linejoin:miter;stroke-miterlimit:4;stroke-dasharray:none;stroke-opacity:1"
           d="m 182.25,442.875 c 0,11.391 -9.234,20.625 -20.625,20.625 -11.391,0 -20.625,-9.234 -20.625,-20.625 0,-11.391 9.234,-20.625 20.625,-20.625 11.391,0 20.625,9.234 20.625,20.625 z" /></g><text
         id="text542"
         style="font-variant:normal;font-weight:normal;font-size:12px;font-family:Arial;-inkscape-font-specification:ArialMT;writing-mode:lr-tb;fill:#000000;fill-opacity:1;fill-rule:nonzero;stroke:none"
         transform="translate(58.535156,277.5)"><tspan
           id="tspan538"
           y="0"
           x="0 8.0039062 14.677734 21.351562 27.351562 34.025391 37.359375 44.033203 47.367188 50.701172 58.705078 62.701172 68.701172 72.035156 78.708984 81.375 84.041016 90.714844 97.388672 104.0625 107.39648 115.40039 122.07422 128.74805 132.08203 138.75586">Phase 2: Erstellung Kanten</tspan><tspan
           id="tspan540"
           y="15"
           x="18.354492 21.020508 27.694336 31.02832 37.702148 41.698242 48.37207 51.038086 57.711914 61.708008 65.041992 71.71582 78.389648 85.063477 88.397461 94.397461 100.39746 107.07129 111.06738 113.7334 117.06738 120.40137">lateraler Laufschritte</tspan></text>
</g></g></svg>