<?xml version="1.0" encoding="UTF-8" standalone="no"?>
<svg
   xmlns:dc="http://purl.org/dc/elements/1.1/"
   xmlns:cc="http://creativecommons.org/ns#"
   xmlns:rdf="http://www.w3.org/1999/02/22-rdf-syntax-ns#"
   xmlns:svg="http://www.w3.org/2000/svg"
   xmlns="http://www.w3.org/2000/svg"
   viewBox="0 0 296 417"
   height="417"
   width="296"
   xml:space="preserve"
   id="svg2"
   version="1.1"><metadata
     id="metadata8"><rdf:RDF><cc:Work
         rdf:about=""><dc:format>image/svg+xml</dc:format><dc:type
           rdf:resource="http://purl.org/dc/dcmitype/StillImage" /></cc:Work></rdf:RDF></metadata><defs
     id="defs6" /><g
     transform="matrix(1.3333333,0,0,1.3333333,0,1.0425e-5)"
     id="g10"><g
       id="g12"><g
         id="g14"><path
           id="path16"
           style="fill:none;stroke:#000000;stroke-width:0.75;stroke-linecap:butt;stroke-linejoin:miter;stroke-miterlimit:10;stroke-dasharray:2.25, 2.25;stroke-dashoffset:0;stroke-opacity:1"
           d="m 105.375,22.875 h 36.473" /></g><g
         id="g18"><path
           id="path20"
           style="fill:#000000;fill-opacity:1;fill-rule:nonzero;stroke:#000000;stroke-width:0.75;stroke-linecap:butt;stroke-linejoin:miter;stroke-miterlimit:10;stroke-dasharray:none;stroke-opacity:1"
           d="m 145.785,22.875 -5.25,2.625 1.313,-2.625 -1.313,-2.625 z" /></g><g
         id="g22"><path
           id="path24"
           style="fill:none;stroke:#000000;stroke-width:0.75;stroke-linecap:butt;stroke-linejoin:miter;stroke-miterlimit:10;stroke-dasharray:2.25, 2.25;stroke-dashoffset:0;stroke-opacity:1"
           d="m 105.375,40.875 36.734,12.594" /></g><g
         id="g26"><path
           id="path28"
           style="fill:#000000;fill-opacity:1;fill-rule:nonzero;stroke:#000000;stroke-width:0.75;stroke-linecap:butt;stroke-linejoin:miter;stroke-miterlimit:10;stroke-dasharray:none;stroke-opacity:1"
           d="m 145.828,54.742 -5.812,0.789 2.093,-2.062 -0.39,-2.91 z" /></g><g
         id="g30"><path
           id="path32"
           style="fill:none;stroke:#000000;stroke-width:0.75;stroke-linecap:butt;stroke-linejoin:miter;stroke-miterlimit:10;stroke-dasharray:2.25, 2.25;stroke-dashoffset:0;stroke-opacity:1"
           d="M 52.875,45.375 V 80.348" /></g><g
         id="g34"><path
           id="path36"
           style="fill:#000000;fill-opacity:1;fill-rule:nonzero;stroke:#000000;stroke-width:0.75;stroke-linecap:butt;stroke-linejoin:miter;stroke-miterlimit:10;stroke-dasharray:none;stroke-opacity:1"
           d="m 52.875,84.285 -2.625,-5.25 2.625,1.313 2.625,-1.313 z" /></g><g
         id="g38"><path
           id="path40"
           style="fill:#ffffff;fill-opacity:1;fill-rule:nonzero;stroke:#000000;stroke-width:0.75;stroke-linecap:butt;stroke-linejoin:miter;stroke-miterlimit:4;stroke-dasharray:none;stroke-opacity:1"
           d="m 0.375,0.375 h 105 v 45 h -105 z" /></g><text
         id="text44"
         style="font-variant:normal;font-weight:normal;font-size:9px;font-family:Arial;-inkscape-font-specification:ArialMT;writing-mode:lr-tb;fill:#000000;fill-opacity:1;fill-rule:nonzero;stroke:none"
         transform="translate(25.229736,21)"><tspan
           id="tspan42"
           y="0"
           x="0 5.0053711 9.5053711 14.510742 22.007812 27.013184 32.018555 37.023926 42.029297 47.034668 49.535156">«component»</tspan></text>
<text
         id="text48"
         style="font-variant:normal;font-weight:bold;font-size:9px;font-family:Arial;-inkscape-font-specification:Arial-BoldMT;writing-mode:lr-tb;fill:#000000;fill-opacity:1;fill-rule:nonzero;stroke:none"
         transform="translate(12.241701,32.25)"><tspan
           id="tspan46"
           y="0"
           x="0 8.0024414 13.5 18.505371 23.510742 31.513184 36.518555 42.016113 45.013184 47.513672 53.01123 58.508789 66.51123 72.008789 77.01416">movement dumper</tspan></text>
<g
         id="g50"><path
           id="path52"
           style="fill:#ffffff;fill-opacity:1;fill-rule:nonzero;stroke:#000000;stroke-width:0.75;stroke-linecap:butt;stroke-linejoin:miter;stroke-miterlimit:10;stroke-dasharray:none;stroke-opacity:1"
           d="m 88.125,5.625 h 12 v 15 h -12 v -3 h -3 v -3 h 3 v -3 h -3 v -3 h 3 z" /></g><g
         id="g54"><path
           id="path56"
           style="fill:none;stroke:#000000;stroke-width:0.75;stroke-linecap:butt;stroke-linejoin:miter;stroke-miterlimit:10;stroke-dasharray:none;stroke-opacity:1"
           d="m 88.125,8.625 h 3 v 3 h -3 m 0,3 h 3 v 3 h -3" /></g><g
         id="g58"><path
           id="path60"
           style="fill:#ffffff;fill-opacity:1;fill-rule:nonzero;stroke:#000000;stroke-width:0.75;stroke-linecap:butt;stroke-linejoin:miter;stroke-miterlimit:4;stroke-dasharray:none;stroke-opacity:1"
           d="m 146.625,4.125 h 75 v 37.5 h -75 z" /></g><text
         id="text68"
         style="font-variant:normal;font-weight:normal;font-size:9px;font-family:Arial;-inkscape-font-specification:ArialMT;writing-mode:lr-tb;fill:#000000;fill-opacity:1;fill-rule:nonzero;stroke:none"
         transform="translate(165.24023,14.626344)"><tspan
           id="tspan62"
           y="0"
           x="0 5.0053711 10.010742 13.007812 15.508301 17.507812 20.008301 25.013672 29.513672 32.01416">«artifact»</tspan><tspan
           id="tspan64"
           y="11.25"
           x="-5.2580609 -2.7575727 2.2477984 4.2473102 9.2526808 14.258052 19.263424 22.260494 27.262981 32.268353 37.273724">teleportand</tspan><tspan
           id="tspan66"
           y="22.5"
           x="-9.2570848 -6.7565966 -3.7595265 1.2458447 6.2512159 10.751216 15.756587 20.761957 23.759027 26.259516 28.760004 33.765377 38.770748 41.271236">transport data</tspan></text>
<g
         id="g70"><path
           id="path72"
           style="fill:#ffffff;fill-opacity:1;fill-rule:nonzero;stroke:#000000;stroke-width:0.75;stroke-linecap:butt;stroke-linejoin:miter;stroke-miterlimit:4;stroke-dasharray:none;stroke-opacity:1"
           d="m 146.625,49.125 h 75 v 37.5 h -75 z" /></g><text
         id="text80"
         style="font-variant:normal;font-weight:normal;font-size:9px;font-family:Arial;-inkscape-font-specification:ArialMT;writing-mode:lr-tb;fill:#000000;fill-opacity:1;fill-rule:nonzero;stroke:none"
         transform="translate(165.24023,60)"><tspan
           id="tspan74"
           y="0"
           x="0 5.0053711 10.010742 13.007812 15.508301 17.507812 20.008301 25.013672 29.513672 32.01416">«artifact»</tspan><tspan
           id="tspan76"
           y="11.25"
           x="-7.5014639 -0.50097573 5.5019541 12.001466 18.004395 20.504883 25.004883 30.010254 34.510254 39.515625">OSRS cache</tspan><tspan
           id="tspan78"
           y="22.5"
           x="0.0043919999 6.5039039 8.5034151 11.003903 16.009275 18.509764 23.009764 28.015135 32.515133">with keys</tspan></text>
<g
         id="g82"><path
           id="path84"
           style="fill:#ffffff;fill-opacity:1;fill-rule:nonzero;stroke:#000000;stroke-width:0.75;stroke-linecap:butt;stroke-linejoin:miter;stroke-miterlimit:4;stroke-dasharray:none;stroke-opacity:1"
           d="m 15.375,85.125 h 75 v 37.5 h -75 z" /></g><text
         id="text90"
         style="font-variant:normal;font-weight:normal;font-size:9px;font-family:Arial;-inkscape-font-specification:ArialMT;writing-mode:lr-tb;fill:#000000;fill-opacity:1;fill-rule:nonzero;stroke:none"
         transform="translate(33.990234,100.5)"><tspan
           id="tspan86"
           y="0"
           x="0 5.0053711 10.010742 13.007812 15.508301 17.507812 20.008301 25.013672 29.513672 32.01416">«artifact»</tspan><tspan
           id="tspan88"
           y="11.25"
           x="-12.014649 -7.0092778 -2.0039067 2.4960933 4.495605 9.5009756 14.506347 17.006836 19.006348 24.011719 29.01709 31.517578 36.522949 41.52832 44.028809">navigation data</tspan></text>
<g
         id="g92"><path
           id="path94"
           style="fill:none;stroke:#000000;stroke-width:0.75;stroke-linecap:butt;stroke-linejoin:miter;stroke-miterlimit:10;stroke-dasharray:2.25, 2.25;stroke-dashoffset:0;stroke-opacity:1"
           d="M 52.875,161.625 V 127.402" /></g><g
         id="g96"><path
           id="path98"
           style="fill:#000000;fill-opacity:1;fill-rule:nonzero;stroke:#000000;stroke-width:0.75;stroke-linecap:butt;stroke-linejoin:miter;stroke-miterlimit:10;stroke-dasharray:none;stroke-opacity:1"
           d="m 52.875,123.465 2.625,5.25 -2.625,-1.313 -2.625,1.313 z" /></g><g
         id="g100"><path
           id="path102"
           style="fill:none;stroke:#000000;stroke-width:0.75;stroke-linecap:butt;stroke-linejoin:miter;stroke-miterlimit:10;stroke-dasharray:none;stroke-opacity:1"
           d="M 52.875,206.625 V 222.75" /></g><g
         id="g104"><path
           id="path106"
           style="fill:none;stroke:#000000;stroke-width:0.75;stroke-linecap:butt;stroke-linejoin:miter;stroke-miterlimit:4;stroke-dasharray:none;stroke-opacity:1"
           d="m 59.25,229.125 c 0,3.52 -2.855,6.375 -6.375,6.375 -3.52,0 -6.375,-2.855 -6.375,-6.375 0,-3.52 2.855,-6.375 6.375,-6.375 3.52,0 6.375,2.855 6.375,6.375 z" /></g><g
         id="g108"><path
           id="path110"
           style="fill:#ffffff;fill-opacity:1;fill-rule:nonzero;stroke:#000000;stroke-width:0.75;stroke-linecap:butt;stroke-linejoin:miter;stroke-miterlimit:4;stroke-dasharray:none;stroke-opacity:1"
           d="m 0.375,161.625 h 105 v 45 h -105 z" /></g><text
         id="text114"
         style="font-variant:normal;font-weight:normal;font-size:9px;font-family:Arial;-inkscape-font-specification:ArialMT;writing-mode:lr-tb;fill:#000000;fill-opacity:1;fill-rule:nonzero;stroke:none"
         transform="translate(25.229736,182.25)"><tspan
           id="tspan112"
           y="0"
           x="0 5.0053711 9.5053711 14.510742 22.007812 27.013184 32.018555 37.023926 42.029297 47.034668 49.535156">«component»</tspan></text>
<text
         id="text118"
         style="font-variant:normal;font-weight:bold;font-size:9px;font-family:Arial;-inkscape-font-specification:Arial-BoldMT;writing-mode:lr-tb;fill:#000000;fill-opacity:1;fill-rule:nonzero;stroke:none"
         transform="translate(10.993653,193.5)"><tspan
           id="tspan116"
           y="0"
           x="0 5.4975586 10.50293 13.5 18.997559 21.994629 24.495117 29.992676 35.490234 40.495605 43.998047 46.498535 51.996094 57.001465 62.006836 67.012207 72.017578 77.515137">pathfinder backend</tspan></text>
<g
         id="g120"><path
           id="path122"
           style="fill:#ffffff;fill-opacity:1;fill-rule:nonzero;stroke:#000000;stroke-width:0.75;stroke-linecap:butt;stroke-linejoin:miter;stroke-miterlimit:10;stroke-dasharray:none;stroke-opacity:1"
           d="m 88.125,166.875 h 12 v 15 h -12 v -3 h -3 v -3 h 3 v -3 h -3 v -3 h 3 z" /></g><g
         id="g124"><path
           id="path126"
           style="fill:none;stroke:#000000;stroke-width:0.75;stroke-linecap:butt;stroke-linejoin:miter;stroke-miterlimit:10;stroke-dasharray:none;stroke-opacity:1"
           d="m 88.125,169.875 h 3 v 3 h -3 m 0,3 h 3 v 3 h -3" /></g><g
         id="g128"><path
           id="path130"
           style="fill:none;stroke:#000000;stroke-width:0.75;stroke-linecap:butt;stroke-linejoin:miter;stroke-miterlimit:10;stroke-dasharray:none;stroke-opacity:1"
           d="m 52.875,266.625 v -27" /></g><g
         id="g132"><path
           id="path134"
           style="fill:none;stroke:#000000;stroke-width:0.75;stroke-linecap:butt;stroke-linejoin:miter;stroke-miterlimit:10;stroke-dasharray:none;stroke-opacity:1"
           d="m 63.375,229.125 c 0,7 -3.5,10.5 -10.5,10.5 -7,0 -10.5,-3.5 -10.5,-10.5" /></g><g
         id="g136"><path
           id="path138"
           style="fill:#ffffff;fill-opacity:1;fill-rule:nonzero;stroke:#000000;stroke-width:0.75;stroke-linecap:butt;stroke-linejoin:miter;stroke-miterlimit:4;stroke-dasharray:none;stroke-opacity:1"
           d="m 0.375,266.625 h 105 v 45 h -105 z" /></g><text
         id="text142"
         style="font-variant:normal;font-weight:normal;font-size:9px;font-family:Arial;-inkscape-font-specification:ArialMT;writing-mode:lr-tb;fill:#000000;fill-opacity:1;fill-rule:nonzero;stroke:none"
         transform="translate(25.229736,287.25)"><tspan
           id="tspan140"
           y="0"
           x="0 5.0053711 9.5053711 14.510742 22.007812 27.013184 32.018555 37.023926 42.029297 47.034668 49.535156">«component»</tspan></text>
<text
         id="text146"
         style="font-variant:normal;font-weight:bold;font-size:9px;font-family:Arial;-inkscape-font-specification:Arial-BoldMT;writing-mode:lr-tb;fill:#000000;fill-opacity:1;fill-rule:nonzero;stroke:none"
         transform="translate(11.004642,298.5)"><tspan
           id="tspan144"
           y="0"
           x="0 5.4975586 10.50293 13.5 18.997559 21.994629 24.495117 29.992676 35.490234 40.495605 43.998047 46.498535 49.495605 52.998047 58.495605 63.993164 66.990234 71.995605 77.493164">pathfinder frontend</tspan></text>
<g
         id="g148"><path
           id="path150"
           style="fill:#ffffff;fill-opacity:1;fill-rule:nonzero;stroke:#000000;stroke-width:0.75;stroke-linecap:butt;stroke-linejoin:miter;stroke-miterlimit:10;stroke-dasharray:none;stroke-opacity:1"
           d="m 88.125,271.875 h 12 v 15 h -12 v -3 h -3 v -3 h 3 v -3 h -3 v -3 h 3 z" /></g><g
         id="g152"><path
           id="path154"
           style="fill:none;stroke:#000000;stroke-width:0.75;stroke-linecap:butt;stroke-linejoin:miter;stroke-miterlimit:10;stroke-dasharray:none;stroke-opacity:1"
           d="m 88.125,274.875 h 3 v 3 h -3 m 0,3 h 3 v 3 h -3" /></g><g
         id="g156"><path
           id="path158"
           style="fill:none;stroke:#000000;stroke-width:0.75;stroke-linecap:butt;stroke-linejoin:miter;stroke-miterlimit:10;stroke-dasharray:none;stroke-opacity:1"
           d="M 127.875,244.125 63.172,231.188" /></g><g
         id="g160"><path
           id="path162"
           style="fill:none;stroke:#000000;stroke-width:0.75;stroke-linecap:butt;stroke-linejoin:miter;stroke-miterlimit:10;stroke-dasharray:none;stroke-opacity:1"
           d="m 54.938,218.828 c 6.859,1.375 9.605,5.496 8.234,12.36 -1.375,6.859 -5.496,9.605 -12.359,8.234" /></g><g
         id="g164"><path
           id="path166"
           style="fill:#ffffff;fill-opacity:1;fill-rule:nonzero;stroke:#000000;stroke-width:0.75;stroke-linecap:butt;stroke-linejoin:miter;stroke-miterlimit:10;stroke-dasharray:none;stroke-opacity:1"
           d="m 127.875,221.625 v -7.5 h 22.5 v 7.5 m -22.5,0 h 75 v 67.5 h -75 z" /></g><text
         id="text186"
         style="font-variant:normal;font-weight:normal;font-size:9px;font-family:Arial;-inkscape-font-specification:ArialMT;writing-mode:lr-tb;fill:#000000;fill-opacity:1;fill-rule:nonzero;stroke:none"
         transform="translate(139.74023,241.5)"><tspan
           id="tspan168"
           y="0"
           x="0 7.0004883 9.5009766 14.506348 19.511719 22.508789 25.009277 29.509277 31.508789 33.508301 38.513672 43.519043 46.019531">Other clients</tspan><tspan
           id="tspan170"
           y="11.25"
           x="-7.2575641 -0.75805229 4.2473187 6.2468305 10.746831 15.752202 18.252689 22.752689 27.75806 32.763432 35.26392 40.269291 45.274662 50.280033 53.277103">which can query</tspan><tspan
           id="tspan172"
           y="22.5"
           x="-3.509028 -1.0085397 3.9968314 5.9963431 12.998343 18.003714 23.009085 27.509085 29.508596 34.513969 39.519341 42.019829 44.019341 49.024712">thisnavigation</tspan><tspan
           id="tspan174"
           y="33.75"
           x="11.006109 15.506109 20.51148 23.508551 28.008551 30.008062 34.50806">service</tspan><tspan
           id="tspan176"
           y="-175.5"
           x="-80.010498 -75.005127 -69.999756 -64.994385 -59.98901 -54.983639 -51.986568 -46.981197 -44.480709 -39.475338">«generate»</tspan><tspan
           id="tspan178"
           y="-96"
           x="-77.000977 -71.995605 -66.990234 -62.490234 -57.484863">«use»</tspan><tspan
           id="tspan180"
           y="-223.50002"
           x="-28.250973 -23.245602 -18.240231 -13.740231 -8.7348595">«use»</tspan><tspan
           id="tspan182"
           y="-201.00002"
           x="-28.250973 -23.245602 -18.240231 -13.740231 -8.7348595">«use»</tspan><tspan
           id="tspan184"
           y="-8.2500029"
           x="-128.49316 -123.48779 -120.9873 -118.48682 -113.48145 -110.48438 -105.98438">http(s)</tspan></text>
<g
         id="g188"><path
           id="path190"
           style="fill:#ffffff;fill-opacity:1;fill-rule:nonzero;stroke:#000000;stroke-width:0.75;stroke-linecap:butt;stroke-linejoin:miter;stroke-miterlimit:10;stroke-dasharray:none;stroke-opacity:1"
           d="m 211.875,7.125 h 3.75 l 3,3 v 5.25 h -6.75 z" /></g><path
         id="path192"
         style="fill:#000000;fill-opacity:0.05;fill-rule:nonzero;stroke:none"
         d="m 215.625,7.125 v 3 h 3 z" /><g
         id="g194"><path
           id="path196"
           style="fill:none;stroke:#000000;stroke-width:0.75;stroke-linecap:butt;stroke-linejoin:miter;stroke-miterlimit:10;stroke-dasharray:none;stroke-opacity:1"
           d="m 215.625,7.125 v 3 h 3" /></g><g
         id="g198"><path
           id="path200"
           style="fill:#ffffff;fill-opacity:1;fill-rule:nonzero;stroke:#000000;stroke-width:0.75;stroke-linecap:butt;stroke-linejoin:miter;stroke-miterlimit:10;stroke-dasharray:none;stroke-opacity:1"
           d="m 211.875,52.125 h 3.75 l 3,3 v 5.25 h -6.75 z" /></g><path
         id="path202"
         style="fill:#000000;fill-opacity:0.05;fill-rule:nonzero;stroke:none"
         d="m 215.625,52.125 v 3 h 3 z" /><g
         id="g204"><path
           id="path206"
           style="fill:none;stroke:#000000;stroke-width:0.75;stroke-linecap:butt;stroke-linejoin:miter;stroke-miterlimit:10;stroke-dasharray:none;stroke-opacity:1"
           d="m 215.625,52.125 v 3 h 3" /></g><g
         id="g208"><path
           id="path210"
           style="fill:#ffffff;fill-opacity:1;fill-rule:nonzero;stroke:#000000;stroke-width:0.75;stroke-linecap:butt;stroke-linejoin:miter;stroke-miterlimit:10;stroke-dasharray:none;stroke-opacity:1"
           d="m 80.625,88.125 h 3.75 l 3,3 v 5.25 h -6.75 z" /></g><path
         id="path212"
         style="fill:#000000;fill-opacity:0.05;fill-rule:nonzero;stroke:none"
         d="m 84.375,88.125 v 3 h 3 z" /><g
         id="g214"><path
           id="path216"
           style="fill:none;stroke:#000000;stroke-width:0.75;stroke-linecap:butt;stroke-linejoin:miter;stroke-miterlimit:10;stroke-dasharray:none;stroke-opacity:1"
           d="m 84.375,88.125 v 3 h 3" /></g></g></g></svg>