<?xml version="1.0" encoding="UTF-8" standalone="no"?>
<svg
   xmlns:dc="http://purl.org/dc/elements/1.1/"
   xmlns:cc="http://creativecommons.org/ns#"
   xmlns:rdf="http://www.w3.org/1999/02/22-rdf-syntax-ns#"
   xmlns:svg="http://www.w3.org/2000/svg"
   xmlns="http://www.w3.org/2000/svg"
   viewBox="0 0 247 167"
   height="167"
   width="247"
   xml:space="preserve"
   id="svg2"
   version="1.1"><metadata
     id="metadata8"><rdf:RDF><cc:Work
         rdf:about=""><dc:format>image/svg+xml</dc:format><dc:type
           rdf:resource="http://purl.org/dc/dcmitype/StillImage" /></cc:Work></rdf:RDF></metadata><defs
     id="defs6" /><g
     transform="matrix(1.3333333,0,0,1.3333333,0,4.175e-6)"
     id="g10"><g
       id="g12"><text
         id="text18"
         style="font-variant:normal;font-weight:normal;font-size:9px;font-family:Arial;-inkscape-font-specification:ArialMT;writing-mode:lr-tb;fill:#000000;fill-opacity:1;fill-rule:nonzero;stroke:none"
         transform="translate(79.390892,28.513636)"><tspan
           id="tspan14"
           y="0"
           x="0 6.0029297 11.008301 16.013672 21.019043">Süden</tspan><tspan
           id="tspan16"
           y="11.25"
           x="-3.744144 1.2612271 3.2607388 8.2661095 12.766109 17.266109 19.265621 24.270992 27.268063">blockiert</tspan></text>
<g
         id="g20"><path
           id="path22"
           style="fill:none;stroke:#001dbc;stroke-width:4.5;stroke-linecap:butt;stroke-linejoin:miter;stroke-miterlimit:10;stroke-dasharray:none;stroke-opacity:1"
           d="m 62.625,122.625 v -120" /></g><g
         id="g24"><path
           id="path26"
           style="fill:none;stroke:#001dbc;stroke-width:4.5;stroke-linecap:butt;stroke-linejoin:miter;stroke-miterlimit:10;stroke-dasharray:none;stroke-opacity:1"
           d="m 122.625,122.625 v -120" /></g><g
         id="g28"><path
           id="path30"
           style="fill:none;stroke:#001dbc;stroke-width:4.5;stroke-linecap:butt;stroke-linejoin:miter;stroke-miterlimit:10;stroke-dasharray:none;stroke-opacity:1"
           d="m 182.625,62.625 h -180" /></g><path
         id="path32"
         style="fill:#e51400;fill-opacity:1;fill-rule:nonzero;stroke:none"
         d="m 4.875,64.875 h 55.5 v 55.5 h -55.5 z" /><text
         id="text42"
         style="font-variant:normal;font-weight:normal;font-size:9px;font-family:Arial;-inkscape-font-specification:ArialMT;writing-mode:lr-tb;fill:#ffffff;fill-opacity:1;fill-rule:nonzero;stroke:none"
         transform="translate(15.934525,78.255987)"><tspan
           id="tspan34"
           y="0"
           x="0 6.0029297 11.008301 15.508301 17.507812 20.008301 22.007812 27.013184">Position</tspan><tspan
           id="tspan36"
           y="11.25"
           x="4.7526841 9.7580547 14.763426 17.760496 22.260496">durch</tspan><tspan
           id="tspan38"
           y="22.5"
           x="3.00366 10.004148 15.00952 17.009031 22.014402 26.514402">Objekt</tspan><tspan
           id="tspan40"
           y="33.75"
           x="-0.74707198 4.2582989 6.2578106 11.263182 15.763182 20.263182 22.262693 27.268064 30.265135">blockiert</tspan></text>
<path
         id="path44"
         style="fill:#e51400;fill-opacity:1;fill-rule:nonzero;stroke:none"
         d="m 4.875,4.875 h 55.5 v 55.5 h -55.5 z" /><text
         id="text54"
         style="font-variant:normal;font-weight:normal;font-size:9px;font-family:Arial;-inkscape-font-specification:ArialMT;writing-mode:lr-tb;fill:#ffffff;fill-opacity:1;fill-rule:nonzero;stroke:none"
         transform="translate(9.544235,18.715289)"><tspan
           id="tspan46"
           y="0"
           x="0 6.0029297 11.008301 15.508301 17.507812 20.008301 22.007812 27.013184 32.018555 34.519043 39.524414 41.523926">Position als</tspan><tspan
           id="tspan48"
           y="11.25"
           x="13.506588 18.511959 20.511471 25.011471 30.016842">nicht</tspan><tspan
           id="tspan50"
           y="22.5"
           x="3.9946229 8.9999943 14.005365 19.010736 24.016108 29.021479 34.026848 39.032219">begehbar</tspan><tspan
           id="tspan52"
           y="33.75"
           x="6.7609801 14.25805 19.263422 22.260492 26.760492 28.760004 33.765373 36.762444">markiert</tspan></text>
<text
         id="text60"
         style="font-variant:normal;font-weight:normal;font-size:9px;font-family:Arial;-inkscape-font-specification:ArialMT;writing-mode:lr-tb;fill:#000000;fill-opacity:1;fill-rule:nonzero;stroke:none"
         transform="translate(77.644066,88.57562)"><tspan
           id="tspan56"
           y="0"
           x="0 6.4995117 11.504883 14.501953 19.507324 24.512695">Norden</tspan><tspan
           id="tspan58"
           y="11.25"
           x="-1.997316 3.0080552 5.0075669 10.012938 14.512938 19.012938 21.012449 26.01782 29.014891">blockiert</tspan></text>
<path
         id="path62"
         style="fill:#e51400;fill-opacity:1;fill-rule:nonzero;stroke:none"
         d="m 64.875,64.875 h 55.5 v 7.5 h -55.5 z" /><path
         id="path64"
         style="fill:#e51400;fill-opacity:1;fill-rule:nonzero;stroke:none"
         d="m 64.875,52.898 h 55.5 v 7.5 h -55.5 z" /><text
         id="text70"
         style="font-variant:normal;font-weight:normal;font-size:9px;font-family:Arial;-inkscape-font-specification:ArialMT;writing-mode:lr-tb;fill:#000000;fill-opacity:1;fill-rule:nonzero;stroke:none"
         transform="translate(139.36101,28.819835)"><tspan
           id="tspan66"
           y="0"
           x="0 8.3326292 13.338 17.837999 20.338488 25.343859">Westen</tspan><tspan
           id="tspan68"
           y="11.25"
           x="-1.582029 3.423342 5.4228539 10.428225 14.928225 19.428225 21.427736 26.433107 29.430178">blockiert</tspan></text>
<path
         id="path72"
         style="fill:#e51400;fill-opacity:1;fill-rule:nonzero;stroke:none"
         d="m 124.875,4.875 h 7.5 v 55.5 h -7.5 z" /><text
         id="text78"
         style="font-variant:normal;font-weight:normal;font-size:9px;font-family:Arial;-inkscape-font-specification:ArialMT;writing-mode:lr-tb;fill:#000000;fill-opacity:1;fill-rule:nonzero;stroke:none"
         transform="translate(140.38236,88.57562)"><tspan
           id="tspan74"
           y="0"
           x="0 7.0004883 11.500488 14.000977 19.006348">Osten</tspan><tspan
           id="tspan76"
           y="11.25"
           x="-4.7504878 0.25488311 2.2543948 7.2597661 11.759766 16.259766 18.259277 23.264648 26.261719">blockiert</tspan></text>
<path
         id="path80"
         style="fill:#e51400;fill-opacity:1;fill-rule:nonzero;stroke:none"
         d="m 172.875,64.875 h 7.5 v 55.5 h -7.5 z" /><g
         id="g82"><path
           id="path84"
           style="fill:none;stroke:#001dbc;stroke-width:4.5;stroke-linecap:butt;stroke-linejoin:miter;stroke-miterlimit:4;stroke-dasharray:none;stroke-opacity:1"
           d="M 2.625,2.625 H 182.699 V 122.578 H 2.625 Z" /></g></g></g></svg>