<?xml version="1.0" encoding="UTF-8" standalone="no"?>
<svg
   xmlns:dc="http://purl.org/dc/elements/1.1/"
   xmlns:cc="http://creativecommons.org/ns#"
   xmlns:rdf="http://www.w3.org/1999/02/22-rdf-syntax-ns#"
   xmlns:svg="http://www.w3.org/2000/svg"
   xmlns="http://www.w3.org/2000/svg"
   viewBox="0 0 591 474"
   height="474"
   width="591"
   xml:space="preserve"
   id="svg2"
   version="1.1"><metadata
     id="metadata8"><rdf:RDF><cc:Work
         rdf:about=""><dc:format>image/svg+xml</dc:format><dc:type
           rdf:resource="http://purl.org/dc/dcmitype/StillImage" /></cc:Work></rdf:RDF></metadata><defs
     id="defs6"><clipPath
       id="clipPath36"
       clipPathUnits="userSpaceOnUse"><path
         id="path34"
         d="m 258.375,23.625 h 84 v 33 h -84 z" /></clipPath><clipPath
       id="clipPath46"
       clipPathUnits="userSpaceOnUse"><path
         id="path44"
         d="M 0,0 H 444 V 356 H 0 Z" /></clipPath><clipPath
       id="clipPath80"
       clipPathUnits="userSpaceOnUse"><path
         id="path78"
         d="m 3.375,23.625 h 144 v 25.5 h -144 z" /></clipPath><clipPath
       id="clipPath90"
       clipPathUnits="userSpaceOnUse"><path
         id="path88"
         d="M 0,0 H 444 V 356 H 0 Z" /></clipPath><clipPath
       id="clipPath138"
       clipPathUnits="userSpaceOnUse"><path
         id="path136"
         d="m 3.375,113.625 h 249 v 40.5 h -249 z" /></clipPath><clipPath
       id="clipPath148"
       clipPathUnits="userSpaceOnUse"><path
         id="path146"
         d="M 0,0 H 444 V 356 H 0 Z" /></clipPath><clipPath
       id="clipPath196"
       clipPathUnits="userSpaceOnUse"><path
         id="path194"
         d="m 288.375,113.625 h 151.5 v 40.5 h -151.5 z" /></clipPath><clipPath
       id="clipPath206"
       clipPathUnits="userSpaceOnUse"><path
         id="path204"
         d="M 0,0 H 444 V 356 H 0 Z" /></clipPath><clipPath
       id="clipPath250"
       clipPathUnits="userSpaceOnUse"><path
         id="path248"
         d="m 3.375,211.125 h 166.5 v 55.5 H 3.375 Z" /></clipPath><clipPath
       id="clipPath260"
       clipPathUnits="userSpaceOnUse"><path
         id="path258"
         d="M 0,0 H 444 V 356 H 0 Z" /></clipPath><clipPath
       id="clipPath314"
       clipPathUnits="userSpaceOnUse"><path
         id="path312"
         d="m 205.875,211.125 h 99 v 55.5 h -99 z" /></clipPath><clipPath
       id="clipPath324"
       clipPathUnits="userSpaceOnUse"><path
         id="path322"
         d="M 0,0 H 444 V 356 H 0 Z" /></clipPath><clipPath
       id="clipPath362"
       clipPathUnits="userSpaceOnUse"><path
         id="path360"
         d="m 228.375,316.125 h 54 V 356 h -54 z" /></clipPath><clipPath
       id="clipPath372"
       clipPathUnits="userSpaceOnUse"><path
         id="path370"
         d="M 0,0 H 444 V 356 H 0 Z" /></clipPath><clipPath
       id="clipPath408"
       clipPathUnits="userSpaceOnUse"><path
         id="path406"
         d="m 348.375,211.125 h 91.5 v 55.5 h -91.5 z" /></clipPath><clipPath
       id="clipPath418"
       clipPathUnits="userSpaceOnUse"><path
         id="path416"
         d="M 0,0 H 444 V 356 H 0 Z" /></clipPath></defs><g
     transform="matrix(1.3333333,0,0,1.3333333,0,1.185e-5)"
     id="g10"><g
       id="g12"><g
         id="g14"><path
           id="path16"
           style="fill:none;stroke:#000000;stroke-width:0.75;stroke-linecap:butt;stroke-linejoin:miter;stroke-miterlimit:10;stroke-dasharray:none;stroke-opacity:1"
           d="m 255.375,19.875 v -19.5 h 90 v 19.5" /></g><g
         id="g18"><path
           id="path20"
           style="fill:none;stroke:#000000;stroke-width:0.75;stroke-linecap:butt;stroke-linejoin:miter;stroke-miterlimit:10;stroke-dasharray:none;stroke-opacity:1"
           d="m 255.375,19.875 v 33 h 90 v -33" /></g><g
         id="g22"><path
           id="path24"
           style="fill:none;stroke:#000000;stroke-width:0.75;stroke-linecap:butt;stroke-linejoin:miter;stroke-miterlimit:10;stroke-dasharray:none;stroke-opacity:1"
           d="m 255.375,19.875 h 90" /></g><text
         id="text28"
         style="font-variant:normal;font-weight:normal;font-size:9px;font-family:Arial;-inkscape-font-specification:ArialMT;writing-mode:lr-tb;fill:#000000;fill-opacity:1;fill-rule:nonzero;stroke:none"
         transform="translate(289.24439,13.5)"><tspan
           id="tspan26"
           y="0"
           x="0 6.0029297 8.503418 13.508789 16.505859">Store</tspan></text>
</g><g
       id="g30"><g
         clip-path="url(#clipPath36)"
         id="g32"><g
           id="g38"><g
             id="g40"><g
               clip-path="url(#clipPath46)"
               id="g42"><g
                 id="g48"><text
                   id="text54"
                   style="font-variant:normal;font-weight:normal;font-size:9px;font-family:Arial;-inkscape-font-specification:ArialMT;writing-mode:lr-tb;fill:#000000;fill-opacity:1;fill-rule:nonzero;stroke:none"
                   transform="translate(259.5,33)"><tspan
                     id="tspan50"
                     y="0"
                     x="0 7.7578592 13.760789 16.261278 21.266649 24.26372 29.269091 32.266159 34.766647 39.772018 41.77153 46.776901 51.782272 54.779343 59.781834 65.279388 67.2789 69.278412 74.283783">+Store(folder:File)</tspan><tspan
                     id="tspan52"
                     y="10.500003"
                     x="0 5.2558594 7.7563477 9.7558594 14.76123 19.766602 24.771973 27.769043 30.766113 33.266602 35.76709 40.26709 45.272461 47.271973">+ load(): void</tspan></text>
</g></g></g></g></g></g><g
       id="g56"><g
         id="g58"><path
           id="path60"
           style="fill:none;stroke:#000000;stroke-width:0.75;stroke-linecap:butt;stroke-linejoin:miter;stroke-miterlimit:10;stroke-dasharray:none;stroke-opacity:1"
           d="m 0.375,19.875 v -19.5 h 150 v 19.5" /></g><g
         id="g62"><path
           id="path64"
           style="fill:none;stroke:#000000;stroke-width:0.75;stroke-linecap:butt;stroke-linejoin:miter;stroke-miterlimit:10;stroke-dasharray:none;stroke-opacity:1"
           d="m 0.375,19.875 v 25.5 h 150 v -25.5" /></g><g
         id="g66"><path
           id="path68"
           style="fill:none;stroke:#000000;stroke-width:0.75;stroke-linecap:butt;stroke-linejoin:miter;stroke-miterlimit:10;stroke-dasharray:none;stroke-opacity:1"
           d="m 0.375,19.875 h 150" /></g><text
         id="text72"
         style="font-variant:normal;font-weight:normal;font-size:9px;font-family:Arial;-inkscape-font-specification:ArialMT;writing-mode:lr-tb;fill:#000000;fill-opacity:1;fill-rule:nonzero;stroke:none"
         transform="translate(40.228271,13.5)"><tspan
           id="tspan70"
           y="0"
           x="0 6.0029297 8.503418 13.508789 18.51416 24.51709 29.522461 34.022461 41.519531 46.524902 51.530273 56.535645 61.541016 66.546387">XteaKeyManager</tspan></text>
</g><g
       id="g74"><g
         clip-path="url(#clipPath80)"
         id="g76"><g
           id="g82"><g
             id="g84"><g
               clip-path="url(#clipPath90)"
               id="g86"><g
                 id="g92"><text
                   id="text96"
                   style="font-variant:normal;font-weight:normal;font-size:9px;font-family:Arial;-inkscape-font-specification:ArialMT;writing-mode:lr-tb;fill:#000000;fill-opacity:1;fill-rule:nonzero;stroke:none"
                   transform="translate(4.5,33)"><tspan
                     id="tspan94"
                     y="0"
                     x="0 7.7578592 9.7573709 14.762742 19.768114 24.773485 30.776415 35.781784 40.281784 44.781784 47.778854 49.778366 54.783737 59.786228 62.286716 67.292084 72.297455 77.302826 79.803314 85.806244 88.306732 91.303802 96.309174 101.31454 108.81161 111.80869 116.80218 121.30218 126.30755 128.30705">+loadKeys(in:InputStream):void</tspan></text>
</g></g></g></g></g></g><g
       id="g98"><g
         id="g100"><path
           id="path102"
           style="fill:none;stroke:#000000;stroke-width:0.75;stroke-linecap:butt;stroke-linejoin:miter;stroke-miterlimit:10;stroke-dasharray:none;stroke-opacity:1"
           d="m 75.375,90.375 v -45" /></g><g
         id="g104"><path
           id="path106"
           style="fill:none;stroke:#000000;stroke-width:0.75;stroke-linecap:butt;stroke-linejoin:miter;stroke-miterlimit:10;stroke-dasharray:none;stroke-opacity:1"
           d="m 157.875,90.375 v -18.75 h 120 v -18.75" /></g><g
         id="g108"><path
           id="path110"
           style="fill:none;stroke:#000000;stroke-width:0.75;stroke-linecap:butt;stroke-linejoin:miter;stroke-miterlimit:10;stroke-dasharray:none;stroke-opacity:1"
           d="m 86.648,166.867 v -1.469 22.477" /></g><g
         id="g112"><path
           id="path114"
           style="fill:none;stroke:#000000;stroke-width:0.75;stroke-linecap:butt;stroke-linejoin:miter;stroke-miterlimit:10;stroke-dasharray:none;stroke-opacity:1"
           d="m 86.648,151.117 4.633,7.875 -4.633,7.875 -4.628,-7.875 z" /></g><g
         id="g116"><path
           id="path118"
           style="fill:none;stroke:#000000;stroke-width:0.75;stroke-linecap:butt;stroke-linejoin:miter;stroke-miterlimit:10;stroke-dasharray:none;stroke-opacity:1"
           d="m 0.375,109.875 v -19.5 h 255 v 19.5" /></g><g
         id="g120"><path
           id="path122"
           style="fill:none;stroke:#000000;stroke-width:0.75;stroke-linecap:butt;stroke-linejoin:miter;stroke-miterlimit:10;stroke-dasharray:none;stroke-opacity:1"
           d="m 0.375,109.875 v 40.5 h 255 v -40.5" /></g><g
         id="g124"><path
           id="path126"
           style="fill:none;stroke:#000000;stroke-width:0.75;stroke-linecap:butt;stroke-linejoin:miter;stroke-miterlimit:10;stroke-dasharray:none;stroke-opacity:1"
           d="m 0.375,109.875 h 255" /></g><text
         id="text130"
         style="font-variant:normal;font-weight:normal;font-size:9px;font-family:Arial;-inkscape-font-specification:ArialMT;writing-mode:lr-tb;fill:#000000;fill-opacity:1;fill-rule:nonzero;stroke:none"
         transform="translate(99.227783,103.5)"><tspan
           id="tspan128"
           y="0"
           x="0 6.4995117 11.504883 16.510254 18.509766 23.515137 28.520508 33.525879 38.53125 43.536621 48.541992 53.547363">RegionLoader</tspan></text>
</g><g
       id="g132"><g
         clip-path="url(#clipPath138)"
         id="g134"><g
           id="g140"><g
             id="g142"><g
               clip-path="url(#clipPath148)"
               id="g144"><g
                 id="g150"><text
                   id="text158"
                   style="font-variant:normal;font-weight:normal;font-size:9px;font-family:Arial;-inkscape-font-specification:ArialMT;writing-mode:lr-tb;fill:#000000;fill-opacity:1;fill-rule:nonzero;stroke:none"
                   transform="translate(4.5,123)"><tspan
                     id="tspan152"
                     y="0"
                     x="0 7.7578592 14.257371 19.262743 24.268114 26.267626 31.272997 36.278366 41.283737 46.289108 51.294479 56.29985 61.305222 64.302292 67.299362 71.799362 74.29985 79.305222 82.302292 87.307663 92.31015 98.31308 100.81357 105.81894 108.81601 113.82138 118.81487 123.31487 128.32024 132.82024 138.82317 141.82024 146.82561 151.32561 153.32512 158.33049 163.33586 166.33293 171.33542 177.33835 179.83884 184.84421 189.84958 195.85251 200.85788 205.35788 212.85495 217.86032 222.86569 227.87106 232.87643 237.88181 240.87888">+RegionLoader(store:Store,keyProvider:XteaKeyManager)</tspan><tspan
                     id="tspan154"
                     y="10.500003"
                     x="0 5.2558594 7.7563477 9.7558594 14.76123 19.766602 24.771973 31.271484 36.276855 41.282227 43.281738 48.287109 53.29248 57.79248 60.789551 63.786621 66.287109 68.787598 73.287598 78.292969 80.29248">+ loadRegions(): void</tspan><tspan
                     id="tspan156"
                     y="21.000006"
                     x="0 7.7578592 12.76323 17.768602 20.269091 26.768602 31.773973 36.779343 38.778854 43.784225 48.789597 53.289597 56.286667 59.283737 64.286224 70.785736 75.791107 77.790619 79.790131 84.795502 89.295502 91.79599 93.795502 98.800873 103.80624 109.0621 115.56161 120.56699 125.57236 127.57187 132.57724 137.58261">+getRegions():Collection&lt;Region&gt;</tspan></text>
</g></g></g></g></g></g><g
       id="g160"><g
         id="g162"><path
           id="path164"
           style="fill:none;stroke:#000000;stroke-width:0.75;stroke-linecap:butt;stroke-linejoin:miter;stroke-miterlimit:10;stroke-dasharray:none;stroke-opacity:1"
           d="m 322.875,90.375 v -37.5" /></g><g
         id="g166"><path
           id="path168"
           style="fill:none;stroke:#000000;stroke-width:0.75;stroke-linecap:butt;stroke-linejoin:miter;stroke-miterlimit:10;stroke-dasharray:none;stroke-opacity:1"
           d="m 397.875,166.867 v 21.008" /></g><g
         id="g170"><path
           id="path172"
           style="fill:none;stroke:#000000;stroke-width:0.75;stroke-linecap:butt;stroke-linejoin:miter;stroke-miterlimit:10;stroke-dasharray:none;stroke-opacity:1"
           d="m 397.875,151.117 4.637,7.875 -4.637,7.875 -4.637,-7.875 z" /></g><g
         id="g174"><path
           id="path176"
           style="fill:none;stroke:#000000;stroke-width:0.75;stroke-linecap:butt;stroke-linejoin:miter;stroke-miterlimit:10;stroke-dasharray:none;stroke-opacity:1"
           d="m 285.375,109.875 v -19.5 h 157.5 v 19.5" /></g><g
         id="g178"><path
           id="path180"
           style="fill:none;stroke:#000000;stroke-width:0.75;stroke-linecap:butt;stroke-linejoin:miter;stroke-miterlimit:10;stroke-dasharray:none;stroke-opacity:1"
           d="m 285.375,109.875 v 40.5 h 157.5 v -40.5" /></g><g
         id="g182"><path
           id="path184"
           style="fill:none;stroke:#000000;stroke-width:0.75;stroke-linecap:butt;stroke-linejoin:miter;stroke-miterlimit:10;stroke-dasharray:none;stroke-opacity:1"
           d="m 285.375,109.875 h 157.5" /></g><text
         id="text188"
         style="font-variant:normal;font-weight:normal;font-size:9px;font-family:Arial;-inkscape-font-specification:ArialMT;writing-mode:lr-tb;fill:#000000;fill-opacity:1;fill-rule:nonzero;stroke:none"
         transform="translate(332.98389,103.5)"><tspan
           id="tspan186"
           y="0"
           x="0 7.0004883 12.005859 14.005371 19.010742 23.510742 26.01123 33.508301 38.513672 43.519043 48.524414 53.529785 58.535156">ObjectManager</tspan></text>
</g><g
       id="g190"><g
         clip-path="url(#clipPath196)"
         id="g192"><g
           id="g198"><g
             id="g200"><g
               clip-path="url(#clipPath206)"
               id="g202"><g
                 id="g208"><text
                   id="text216"
                   style="font-variant:normal;font-weight:normal;font-size:9px;font-family:Arial;-inkscape-font-specification:ArialMT;writing-mode:lr-tb;fill:#000000;fill-opacity:1;fill-rule:nonzero;stroke:none"
                   transform="translate(289.5,123)"><tspan
                     id="tspan210"
                     y="0"
                     x="0 7.7578592 14.758348 19.76372 21.763231 26.768602 31.268602 33.769089 41.266159 46.27153 51.276901 56.282272 61.287643 66.293015 69.290085 72.287155 76.787155 79.287643 84.293015 87.290085 92.295456 97.297943 103.30087 105.80136 110.80673 113.8038 118.80917">+ObjectManager(store:Store)</tspan><tspan
                     id="tspan212"
                     y="10.500003"
                     x="0 5.2558594 7.7563477 9.7558594 14.76123 19.766602 24.771973 27.769043 30.766113 33.266602 35.76709 40.26709 45.272461 47.271973">+ load(): void</tspan><tspan
                     id="tspan214"
                     y="21.000006"
                     x="0 7.7578592 12.76323 17.768602 20.269091 27.269579 32.274948 34.27446 39.279831 43.779831 46.280319 49.27739 51.276901 56.282272 61.284763 63.284275 68.289642 70.790131 73.787201 78.780693 85.781181 90.786552 92.786064 97.791435 102.29144 104.79192 111.29144 116.29681 118.79729 120.79681 125.80218 127.80169 130.30217 132.30168 137.30705">+getObject(id:int):ObjectDefinition</tspan></text>
</g></g></g></g></g></g><g
       id="g218"><g
         id="g220"><path
           id="path222"
           style="fill:none;stroke:#000000;stroke-width:0.75;stroke-linecap:butt;stroke-linejoin:miter;stroke-miterlimit:10;stroke-dasharray:none;stroke-opacity:1"
           d="m 189.367,225.398 h 6.008 -7.5 15" /></g><g
         id="g224"><path
           id="path226"
           style="fill:none;stroke:#000000;stroke-width:0.75;stroke-linecap:butt;stroke-linejoin:miter;stroke-miterlimit:10;stroke-dasharray:none;stroke-opacity:1"
           d="m 173.617,225.398 7.875,-4.628 7.875,4.628 -7.875,4.633 z" /></g><g
         id="g228"><path
           id="path230"
           style="fill:none;stroke:#000000;stroke-width:0.75;stroke-linecap:butt;stroke-linejoin:miter;stroke-miterlimit:10;stroke-dasharray:none;stroke-opacity:1"
           d="m 0.375,207.375 v -19.5 h 172.5 v 19.5" /></g><g
         id="g232"><path
           id="path234"
           style="fill:none;stroke:#000000;stroke-width:0.75;stroke-linecap:butt;stroke-linejoin:miter;stroke-miterlimit:10;stroke-dasharray:none;stroke-opacity:1"
           d="m 0.375,207.375 v 55.5 h 172.5 v -55.5" /></g><g
         id="g236"><path
           id="path238"
           style="fill:none;stroke:#000000;stroke-width:0.75;stroke-linecap:butt;stroke-linejoin:miter;stroke-miterlimit:10;stroke-dasharray:none;stroke-opacity:1"
           d="m 0.375,207.375 h 172.5" /></g><text
         id="text242"
         style="font-variant:normal;font-weight:normal;font-size:9px;font-family:Arial;-inkscape-font-specification:ArialMT;writing-mode:lr-tb;fill:#000000;fill-opacity:1;fill-rule:nonzero;stroke:none"
         transform="translate(71.989746,201)"><tspan
           id="tspan240"
           y="0"
           x="0 6.4995117 11.504883 16.510254 18.509766 23.515137">Region</tspan></text>
</g><g
       id="g244"><g
         clip-path="url(#clipPath250)"
         id="g246"><g
           id="g252"><g
             id="g254"><g
               clip-path="url(#clipPath260)"
               id="g256"><g
                 id="g262"><text
                   id="text272"
                   style="font-variant:normal;font-weight:normal;font-size:9px;font-family:Arial;-inkscape-font-specification:ArialMT;writing-mode:lr-tb;fill:#000000;fill-opacity:1;fill-rule:nonzero;stroke:none"
                   transform="translate(4.5,220.5)"><tspan
                     id="tspan264"
                     y="0"
                     x="0 5.2558594 7.7563477 12.761719 17.76709 20.267578 26.76709 31.772461 36.777832 38.777344 43.782715 48.788086 54.791016 57.788086 60.785156 63.285645 65.786133 67.785645 72.791016">+ getRegionX(): int</tspan><tspan
                     id="tspan266"
                     y="10.500003"
                     x="0 7.7578592 12.76323 17.768602 20.269091 26.768602 31.773973 36.779343 38.778854 43.784225 48.789597 54.792526 57.789597 60.786667 65.789154 67.788666 72.794037">+getRegionY():int</tspan><tspan
                     id="tspan268"
                     y="21.000006"
                     x="0 5.2558594 7.7563477 12.761719 17.76709 20.267578 25.432137 27.431648 29.43116 34.436531 40.439461 45.444832 47.94532 50.445808 52.44532 57.450691 62.456062 65.453133 69.953133 72.453621 74.954109 76.953621 81.958992 84.45948 86.959969 89.460457 93.960457 96.460945 98.961433 100.96095 105.96632 108.4668 110.96729 113.46778 117.96778 120.46827 122.96876 124.96827 129.97365 132.47414 135.47121 137.97169 140.47218 145.47755 149.97755 152.47804">+ getTileSetting(z: int, x: int, y: int): byte</tspan><tspan
                     id="tspan270"
                     y="31.50001"
                     x="0 7.7578592 12.76323 17.768602 20.269091 25.274462 30.279833 34.779831 39.785202 42.28569 44.285202 49.290573 54.295944 58.795944 61.793015 64.790085 69.792572 74.797943 76.797455 81.297455 83.797943 89.053802 94.059174 99.064545 103.56454 108.56992 111.0704 113.06992 118.07529 123.08066">+getLocations():List&lt;Location&gt;</tspan></text>
</g></g></g></g></g></g><g
       id="g274"><g
         id="g276"><path
           id="path278"
           style="fill:none;stroke:#000000;stroke-width:0.75;stroke-linecap:butt;stroke-linejoin:miter;stroke-miterlimit:10;stroke-dasharray:none;stroke-opacity:1"
           d="m 255.375,279.367 v 6.031 -7.5 14.977" /></g><g
         id="g280"><path
           id="path282"
           style="fill:none;stroke:#000000;stroke-width:0.75;stroke-linecap:butt;stroke-linejoin:miter;stroke-miterlimit:10;stroke-dasharray:none;stroke-opacity:1"
           d="m 255.375,263.617 4.637,7.875 -4.637,7.875 -4.637,-7.875 z" /></g><g
         id="g284"><path
           id="path286"
           style="fill:none;stroke:#000000;stroke-width:0.75;stroke-linecap:butt;stroke-linejoin:miter;stroke-miterlimit:10;stroke-dasharray:2.25, 2.25;stroke-dashoffset:0;stroke-opacity:1"
           d="m 324.367,225.375 h 21.008" /></g><g
         id="g288"><path
           id="path290"
           style="fill:none;stroke:#000000;stroke-width:0.75;stroke-linecap:butt;stroke-linejoin:miter;stroke-miterlimit:10;stroke-dasharray:none;stroke-opacity:1"
           d="m 308.617,225.375 7.875,-4.637 7.875,4.637 -7.875,4.637 z" /></g><g
         id="g292"><path
           id="path294"
           style="fill:none;stroke:#000000;stroke-width:0.75;stroke-linecap:butt;stroke-linejoin:miter;stroke-miterlimit:10;stroke-dasharray:none;stroke-opacity:1"
           d="m 202.875,207.375 v -19.5 h 105 v 19.5" /></g><g
         id="g296"><path
           id="path298"
           style="fill:none;stroke:#000000;stroke-width:0.75;stroke-linecap:butt;stroke-linejoin:miter;stroke-miterlimit:10;stroke-dasharray:none;stroke-opacity:1"
           d="m 202.875,207.375 v 55.5 h 105 v -55.5" /></g><g
         id="g300"><path
           id="path302"
           style="fill:none;stroke:#000000;stroke-width:0.75;stroke-linecap:butt;stroke-linejoin:miter;stroke-miterlimit:10;stroke-dasharray:none;stroke-opacity:1"
           d="m 202.875,207.375 h 105" /></g><text
         id="text306"
         style="font-variant:normal;font-weight:normal;font-size:9px;font-family:Arial;-inkscape-font-specification:ArialMT;writing-mode:lr-tb;fill:#000000;fill-opacity:1;fill-rule:nonzero;stroke:none"
         transform="translate(237.98657,201)"><tspan
           id="tspan304"
           y="0"
           x="0 5.0053711 10.010742 14.510742 19.516113 22.016602 24.016113 29.021484">Location</tspan></text>
</g><g
       id="g308"><g
         clip-path="url(#clipPath314)"
         id="g310"><g
           id="g316"><g
             id="g318"><g
               clip-path="url(#clipPath324)"
               id="g320"><g
                 id="g326"><text
                   id="text336"
                   style="font-variant:normal;font-weight:normal;font-size:9px;font-family:Arial;-inkscape-font-specification:ArialMT;writing-mode:lr-tb;fill:#000000;fill-opacity:1;fill-rule:nonzero;stroke:none"
                   transform="translate(207,220.5)"><tspan
                     id="tspan328"
                     y="0"
                     x="0 5.2558594 7.7563477 12.761719 17.76709 20.267578 22.768066 27.773438 30.770508 33.767578 36.268066 38.768555 40.768066 45.773438">+ getId(): int</tspan><tspan
                     id="tspan330"
                     y="10.500003"
                     x="0 7.7578592 12.76323 17.768602 20.269091 25.271648 29.771648 34.77702 39.782391 42.779461 45.776531 50.77002 52.769531 57.774902">+getType():int</tspan><tspan
                     id="tspan332"
                     y="21.000006"
                     x="0 5.2558594 7.7563477 12.761719 17.76709 20.267578 27.268066 30.265137 32.264648 37.27002 42.275391 44.775879 49.78125 52.281738 54.28125 59.286621 64.291992 67.289062 70.286133 72.786621 75.287109 77.286621 82.291992">+ getOrientation(): int</tspan><tspan
                     id="tspan334"
                     y="31.50001"
                     x="0 7.7578592 12.76323 17.768602 20.269091 26.27202 31.277391 35.77739 37.776901 40.27739 42.276901 47.282272 52.287643 55.284714 58.281784 63.284275 69.287201 74.292572 78.792572 80.792084 83.292572 85.292084 90.297455">+getPosition():Position</tspan></text>
</g></g></g></g></g></g><g
       id="g338"><g
         id="g340"><path
           id="path342"
           style="fill:none;stroke:#000000;stroke-width:0.75;stroke-linecap:butt;stroke-linejoin:miter;stroke-miterlimit:10;stroke-dasharray:none;stroke-opacity:1"
           d="m 225.375,312.375 v -19.5 h 60 v 19.5" /></g><g
         id="g344"><path
           id="path346"
           style="fill:none;stroke:#000000;stroke-width:0.75;stroke-linecap:butt;stroke-linejoin:miter;stroke-miterlimit:10;stroke-dasharray:none;stroke-opacity:1"
           d="m 225.375,312.375 v 40.5 h 60 v -40.5" /></g><g
         id="g348"><path
           id="path350"
           style="fill:none;stroke:#000000;stroke-width:0.75;stroke-linecap:butt;stroke-linejoin:miter;stroke-miterlimit:10;stroke-dasharray:none;stroke-opacity:1"
           d="m 225.375,312.375 h 60" /></g><text
         id="text354"
         style="font-variant:normal;font-weight:normal;font-size:9px;font-family:Arial;-inkscape-font-specification:ArialMT;writing-mode:lr-tb;fill:#000000;fill-opacity:1;fill-rule:nonzero;stroke:none"
         transform="translate(238.99072,306)"><tspan
           id="tspan352"
           y="0"
           x="0 6.0029297 11.008301 15.508301 17.507812 20.008301 22.007812 27.013184">Position</tspan></text>
</g><g
       id="g356"><g
         clip-path="url(#clipPath362)"
         id="g358"><g
           id="g364"><g
             id="g366"><g
               clip-path="url(#clipPath372)"
               id="g368"><g
                 id="g374"><text
                   id="text382"
                   style="font-variant:normal;font-weight:normal;font-size:9px;font-family:Arial;-inkscape-font-specification:ArialMT;writing-mode:lr-tb;fill:#000000;fill-opacity:1;fill-rule:nonzero;stroke:none"
                   transform="translate(229.5,325.5)"><tspan
                     id="tspan376"
                     y="0"
                     x="0 5.2558594 7.7563477 12.761719 17.76709 20.267578 26.270508 29.267578 32.264648 34.765137 37.265625 39.265137 44.270508">+ getX(): int</tspan><tspan
                     id="tspan378"
                     y="10.500003"
                     x="0 7.7578592 12.76323 17.768602 20.269091 26.27202 29.269091 32.266159 37.26865 39.268162 44.273533">+getY():int</tspan><tspan
                     id="tspan380"
                     y="21.000006"
                     x="0 5.2558594 7.7563477 12.761719 17.76709 20.267578 25.765137 28.762207 31.759277 34.259766 36.760254 38.759766 43.765137">+ getZ(): int</tspan></text>
</g></g></g></g></g></g><g
       id="g384"><g
         id="g386"><path
           id="path388"
           style="fill:none;stroke:#000000;stroke-width:0.75;stroke-linecap:butt;stroke-linejoin:miter;stroke-miterlimit:10;stroke-dasharray:none;stroke-opacity:1"
           d="m 345.375,207.375 v -19.5 h 97.5 v 19.5" /></g><g
         id="g390"><path
           id="path392"
           style="fill:none;stroke:#000000;stroke-width:0.75;stroke-linecap:butt;stroke-linejoin:miter;stroke-miterlimit:10;stroke-dasharray:none;stroke-opacity:1"
           d="m 345.375,207.375 v 55.5 h 97.5 v -55.5" /></g><g
         id="g394"><path
           id="path396"
           style="fill:none;stroke:#000000;stroke-width:0.75;stroke-linecap:butt;stroke-linejoin:miter;stroke-miterlimit:10;stroke-dasharray:none;stroke-opacity:1"
           d="m 345.375,207.375 h 97.5" /></g><text
         id="text400"
         style="font-variant:normal;font-weight:normal;font-size:9px;font-family:Arial;-inkscape-font-specification:ArialMT;writing-mode:lr-tb;fill:#000000;fill-opacity:1;fill-rule:nonzero;stroke:none"
         transform="translate(361.98413,201)"><tspan
           id="tspan398"
           y="0"
           x="0 7.0004883 12.005859 14.005371 19.010742 23.510742 26.01123 32.510742 37.516113 40.016602 42.016113 47.021484 49.020996 51.521484 53.520996 58.526367">ObjectDefinition</tspan></text>
</g><g
       id="g402"><g
         clip-path="url(#clipPath408)"
         id="g404"><g
           id="g410"><g
             id="g412"><g
               clip-path="url(#clipPath418)"
               id="g414"><g
                 id="g420"><text
                   id="text430"
                   style="font-variant:normal;font-weight:normal;font-size:9px;font-family:Arial;-inkscape-font-specification:ArialMT;writing-mode:lr-tb;fill:#000000;fill-opacity:1;fill-rule:nonzero;stroke:none"
                   transform="translate(349.5,220.5)"><tspan
                     id="tspan422"
                     y="0"
                     x="0 5.2558594 7.7563477 12.761719 17.76709 20.267578 22.768066 27.773438 30.770508 33.767578 36.268066 38.768555 40.768066 45.773438">+ getId(): int</tspan><tspan
                     id="tspan424"
                     y="10.500003"
                     x="0 7.7578592 12.76323 17.768602 20.269091 22.769579 27.77495 30.275438 35.280807 38.277878 43.283249 47.783249 50.283737 55.286297 59.786297 64.791672 69.797043 72.794113 75.791183 80.784668 82.78418 87.789551">+getInteractType():int</tspan><tspan
                     id="tspan426"
                     y="21.000006"
                     x="0 5.2558594 7.7563477 12.761719 17.76709 20.267578 26.270508 28.27002 32.77002 37.775391 43.77832 46.775391 49.772461 52.272949 54.773438 56.772949 61.77832">+ getSizeX(): int</tspan><tspan
                     id="tspan428"
                     y="31.50001"
                     x="0 7.7578592 12.76323 17.768602 20.269091 26.27202 28.271532 32.77153 37.776901 43.779831 46.776901 49.773972 54.776463 56.775974 61.781345">+getSizeY():int</tspan></text>
</g></g></g></g></g></g><g
       id="g432"><g
         id="g434"><path
           id="path436"
           style="fill:none;stroke:#000000;stroke-width:0.75;stroke-linecap:butt;stroke-linejoin:miter;stroke-miterlimit:10;stroke-dasharray:2.25, 2.25;stroke-dashoffset:0;stroke-opacity:1"
           d="M 175.598,22.875 H 150.375" /></g><g
         id="g438"><path
           id="path440"
           style="fill:#000000;fill-opacity:1;fill-rule:nonzero;stroke:#000000;stroke-width:0.75;stroke-linecap:butt;stroke-linejoin:miter;stroke-miterlimit:10;stroke-dasharray:none;stroke-opacity:1"
           d="m 179.535,22.875 -5.25,2.625 1.313,-2.625 -1.313,-2.625 z" /></g><g
         id="g442"><path
           id="path444"
           style="fill:none;stroke:#000000;stroke-width:0.75;stroke-linecap:butt;stroke-linejoin:miter;stroke-miterlimit:10;stroke-dasharray:2.25, 2.25;stroke-dashoffset:0;stroke-opacity:1"
           d="M 370.598,26.625 H 345.375" /></g><g
         id="g446"><path
           id="path448"
           style="fill:#000000;fill-opacity:1;fill-rule:nonzero;stroke:#000000;stroke-width:0.75;stroke-linecap:butt;stroke-linejoin:miter;stroke-miterlimit:10;stroke-dasharray:none;stroke-opacity:1"
           d="m 374.535,26.625 -5.25,2.625 1.313,-2.625 L 369.285,24 Z" /></g><text
         id="text464"
         style="font-variant:normal;font-weight:normal;font-size:9px;font-family:Arial;-inkscape-font-specification:ArialMT;writing-mode:lr-tb;fill:#000000;fill-opacity:1;fill-rule:nonzero;stroke:none"
         transform="translate(79.247314,56.25)"><tspan
           id="tspan450"
           y="0"
           x="0">1</tspan><tspan
           id="tspan452"
           y="9"
           x="204 251.99837">11</tspan><tspan
           id="tspan454"
           y="125.25"
           x="12.248298 17.25367 19.754158 22.254646">0..*</tspan><tspan
           id="tspan456"
           y="126.75001"
           x="321.99829 327.00366 329.50415 332.00464">0..*</tspan><tspan
           id="tspan458"
           y="165.75"
           x="108.2483 113.25367 115.75416 118.25465">0..*</tspan><tspan
           id="tspan460"
           y="231.75"
           x="181.50002">1</tspan><tspan
           id="tspan462"
           y="165"
           x="258">1</tspan></text>
<g
         id="g466"><path
           id="path468"
           style="fill:none;stroke:#000000;stroke-width:0.75;stroke-linecap:butt;stroke-linejoin:miter;stroke-miterlimit:10;stroke-dasharray:2.25, 2.25;stroke-dashoffset:0;stroke-opacity:1"
           d="m 332.602,281.625 v -56.227 l -2.227,-0.023" /></g><g
         id="g470"><path
           id="path472"
           style="fill:#ffffff;fill-opacity:1;fill-rule:nonzero;stroke:#000000;stroke-width:0.75;stroke-linecap:butt;stroke-linejoin:miter;stroke-miterlimit:10;stroke-dasharray:none;stroke-opacity:1"
           d="m 307.875,281.625 h 103.5 l 9,9 v 32.25 h -112.5 z" /></g><path
         id="path474"
         style="fill:#000000;fill-opacity:0.05;fill-rule:nonzero;stroke:none"
         d="m 411.375,281.625 v 9 h 9 z" /><g
         id="g476"><path
           id="path478"
           style="fill:none;stroke:#000000;stroke-width:0.75;stroke-linecap:butt;stroke-linejoin:miter;stroke-miterlimit:10;stroke-dasharray:none;stroke-opacity:1"
           d="m 411.375,281.625 v 9 h 9" /></g><text
         id="text486"
         style="font-variant:normal;font-weight:normal;font-size:9px;font-family:Arial;-inkscape-font-specification:ArialMT;writing-mode:lr-tb;fill:#000000;fill-opacity:1;fill-rule:nonzero;stroke:none"
         transform="translate(318.96973,295.5)"><tspan
           id="tspan480"
           y="0"
           x="0 5.0053711 10.010742 14.510742 19.516113 22.016602 24.016113 29.021484 34.026855 39.032227 44.037598 49.042969 51.543457 54.043945 59.049316 61.549805 64.546875 69.552246 72.052734 77.058105 80.055176 85.060547">Location#getId returns</tspan><tspan
           id="tspan482"
           y="11.25"
           x="-9.5031719 -4.4978008 0.50757021 3.0080585 5.5085468 10.513918 13.014406 18.019777 20.520266 23.020754 28.026125 35.533497 42.533985 47.539356 49.538868 54.544239 59.044239 61.544727 68.044235 73.049606 75.550095 77.549606 82.554977 84.554489 87.054977 89.054489 94.05986">an Id of anObjectDefinition</tspan><tspan
           id="tspan484"
           y="22.5"
           x="30.522223 32.521732 37.527103 42.027103 44.527592 49.532963 54.032963">instace</tspan></text>
<g
         id="g488"><path
           id="path490"
           style="fill:#ffffff;fill-opacity:1;fill-rule:nonzero;stroke:#000000;stroke-width:0.75;stroke-linecap:butt;stroke-linejoin:miter;stroke-miterlimit:4;stroke-dasharray:none;stroke-opacity:1"
           d="m 375.375,7.875 h 67.5 v 37.5 h -67.5 z" /></g><text
         id="text498"
         style="font-variant:normal;font-weight:normal;font-size:9px;font-family:Arial;-inkscape-font-specification:ArialMT;writing-mode:lr-tb;fill:#000000;fill-opacity:1;fill-rule:nonzero;stroke:none"
         transform="translate(390.24023,18.75)"><tspan
           id="tspan492"
           y="0"
           x="0 5.0053711 10.010742 13.007812 15.508301 17.507812 20.008301 25.013672 29.513672 32.01416">«artifact»</tspan><tspan
           id="tspan494"
           y="11.25"
           x="7.2531719 12.258543 17.263914 24.760984">game</tspan><tspan
           id="tspan496"
           y="22.5"
           x="6.5017071 11.001707 16.007078 20.507078 25.512449">cache</tspan></text>
<g
         id="g500"><path
           id="path502"
           style="fill:#ffffff;fill-opacity:1;fill-rule:nonzero;stroke:#000000;stroke-width:0.75;stroke-linecap:butt;stroke-linejoin:miter;stroke-miterlimit:10;stroke-dasharray:none;stroke-opacity:1"
           d="m 431.625,11.625 h 3.75 l 3,3 v 5.25 h -6.75 z" /></g><path
         id="path504"
         style="fill:#000000;fill-opacity:0.05;fill-rule:nonzero;stroke:none"
         d="m 435.375,11.625 v 3 h 3 z" /><g
         id="g506"><path
           id="path508"
           style="fill:none;stroke:#000000;stroke-width:0.75;stroke-linecap:butt;stroke-linejoin:miter;stroke-miterlimit:10;stroke-dasharray:none;stroke-opacity:1"
           d="m 435.375,11.625 v 3 h 3" /></g><g
         id="g510"><path
           id="path512"
           style="fill:#ffffff;fill-opacity:1;fill-rule:nonzero;stroke:#000000;stroke-width:0.75;stroke-linecap:butt;stroke-linejoin:miter;stroke-miterlimit:4;stroke-dasharray:none;stroke-opacity:1"
           d="m 180.375,4.125 h 67.5 v 37.5 h -67.5 z" /></g><text
         id="text520"
         style="font-variant:normal;font-weight:normal;font-size:9px;font-family:Arial;-inkscape-font-specification:ArialMT;writing-mode:lr-tb;fill:#000000;fill-opacity:1;fill-rule:nonzero;stroke:none"
         transform="translate(195.24023,14.150537)"><tspan
           id="tspan514"
           y="0"
           x="0 5.0053711 10.010742 13.007812 15.508301 17.507812 20.008301 25.013672 29.513672 32.01416">«artifact»</tspan><tspan
           id="tspan516"
           y="11.25"
           x="-2.2521961 2.753175 7.7585464 12.258546 15.255616 19.755617 24.760988 27.261477 29.260988 34.266357">decryption</tspan><tspan
           id="tspan518"
           y="22.5"
           x="9.2570848 13.757085 18.762457 23.262457">keys</tspan></text>
<g
         id="g522"><path
           id="path524"
           style="fill:#ffffff;fill-opacity:1;fill-rule:nonzero;stroke:#000000;stroke-width:0.75;stroke-linecap:butt;stroke-linejoin:miter;stroke-miterlimit:10;stroke-dasharray:none;stroke-opacity:1"
           d="m 236.625,7.875 h 3.75 l 3,3 v 5.25 h -6.75 z" /></g><path
         id="path526"
         style="fill:#000000;fill-opacity:0.05;fill-rule:nonzero;stroke:none"
         d="m 240.375,7.875 v 3 h 3 z" /><g
         id="g528"><path
           id="path530"
           style="fill:none;stroke:#000000;stroke-width:0.75;stroke-linecap:butt;stroke-linejoin:miter;stroke-miterlimit:10;stroke-dasharray:none;stroke-opacity:1"
           d="m 240.375,7.875 v 3 h 3" /></g><text
         id="text536"
         style="font-variant:normal;font-weight:normal;font-size:9px;font-family:Arial;-inkscape-font-specification:ArialMT;writing-mode:lr-tb;fill:#000000;fill-opacity:1;fill-rule:nonzero;stroke:none"
         transform="translate(152.73926,17.25)"><tspan
           id="tspan532"
           y="0"
           x="0 5.0053711 10.010742 14.510742 19.516113">«use»</tspan><tspan
           id="tspan534"
           y="2.9999969"
           x="195 200.00537 205.01074 209.51074 214.51611">«use»</tspan></text>
<path
         id="path538"
         style="fill:#000000;fill-opacity:1;fill-rule:nonzero;stroke:none"
         d="m 255.41,263.848 4.629,7.41 -4.531,7.555 -4.629,-7.415 z" /><path
         id="path540"
         style="fill:#000000;fill-opacity:1;fill-rule:nonzero;stroke:none"
         d="m 323.906,225.262 -7.406,4.636 -7.559,-4.519 7.407,-4.637 z" /></g></g></svg>